<?xml version="1.0" encoding="UTF-8"?>
<svg id="Layer_1" xmlns="http://www.w3.org/2000/svg" viewBox="0 0 255.17 239.03">
  <g>
    <path fill="#330" d="M231.26,231.07v7.97H32.04v-7.97H231.26Z"/>
    <path fill="#080808" d="M255.17,127.5h-7.97v-7.97h7.97v7.97Z"/>
    <path fill="#989800" d="M231.26,231.07H24.64c-.12-.1-.27-.18-.36-.31-.09-.12-.19-.27-.2-.41,0-7.73,0-15.46,0-23.19h7.97v15.77c19.64,.76,186.75,.44,191.25-.35v-39.32h7.97v47.8Z"/>
    <path fill="#989800" d="M8.13,103.6v-7.97H199.39v7.97H8.13Z"/>
    <path fill="olive" d="M40.01,39.86v-7.43c.11-.12,.2-.26,.33-.35,.12-.09,.28-.17,.42-.17,18.34,0,36.69,0,55.03,0v7.97H40.01Z"/>
    <path fill="olive" d="M32.04,95.63h-7.97V47.83h7.97v47.8Z"/>
    <path fill="#989800" d="M8.13,143.43H.67c-.72-4.12-.91-25.67-.34-39.83h7.8v39.83Z"/>
    <path fill="olive" d="M191.42,55.8h31.88v15.93h-8.16v-7.97h-23.72v-7.97Z"/>
    <path fill="#003434" d="M231.26,71.73h7.97v31.87h-7.97v-31.87Z"/>
    <path fill="#989800" d="M16.1,175.3h-7.97v-31.87h7.97v31.87Z"/>
    <path fill="#989800" d="M24.07,207.17h-7.97v-31.87h7.97v31.87Z"/>
    <path fill="#003434" d="M223.29,71.73v-7.97h7.97v7.97h-7.97Z"/>
    <path fill="#858585" d="M111.73,23.93v-7.97h7.97v7.97h-7.97Z"/>
    <path d="M231.26,103.6h7.97v7.97h-7.97v-7.97Z"/>
    <path fill="#555" d="M143.61,15.96h7.97v7.97h-7.97v-7.97Z"/>
    <path d="M239.23,111.56h7.97v7.97h-7.97v-7.97Z"/>
    <path fill="#555" d="M135.64,8h7.97v7.97h-7.97V8Z"/>
    <path fill="#4d4d4d" d="M191.42,55.8v7.97h-7.97v-7.97h7.97Z"/>
    <path fill="#555" d="M175.48,47.83h7.97v7.97h-7.97v-7.97Z"/>
    <path fill="#858585" d="M119.7,15.96V8h7.97v7.97h-7.97Z"/>
    <path fill="#4d4d4d" d="M167.51,39.86h7.97v7.97h-7.97v-7.97Z"/>
    <path fill="#858585" d="M127.67,8V.16c2.52-.28,5.08-.05,7.97-.16V8h-7.97Z"/>
    <path fill="olive" d="M32.04,47.83v-7.97h7.97v7.97h-7.97Z"/>
    <path fill="#4d4d4d" d="M159.54,31.9h7.97v7.97h-7.97v-7.97Z"/>
    <path fill="#858585" d="M95.79,39.86v-7.97h7.97v7.97h-7.97Z"/>
    <path fill="#4d4d4d" d="M151.57,23.93h7.97v7.97h-7.97v-7.97Z"/>
    <path fill="#858585" d="M103.76,31.9v-7.97h7.97v7.97h-7.97Z"/>
    <path fill="#330" d="M231.26,231.07v-47.8h-7.97v-31.87h7.97v-7.97h7.97v87.63h-7.97Z"/>
    <path d="M247.2,127.5v7.97h-7.97v-7.97h7.97Z"/>
    <path d="M239.23,143.43h-7.97v-7.97h7.97v7.97Z"/>
    <path fill="#bfbfbf" d="M247.2,127.5h-7.97v-7.97h7.97v7.97Z"/>
    <path fill="#fec890" d="M223.29,167.33v55.26c-4.5,.79-171.61,1.11-191.25,.35v-7.81h15.94v-7.97h7.97v7.77h15.99v-7.77h7.92v7.97c2.96,0,5.59,.04,8.22-.01,2.58-.05,5.18,.21,7.72-.14v-7.81h15.94v8c2.89-.1,5.45,.12,7.97-.16v-7.84h15.94v7.97c2.96,0,5.59,.04,8.22-.01,2.58-.05,5.18,.21,7.72-.14v-7.81h7.97v8c2.89-.1,5.45,.12,7.97-.16v-7.84c2.66,0,5.31,0,8.04,.07,.07,2.52,.07,5.1,.07,7.68h7.72v-7.61c-2.68,0-5.27,0-7.79-.07-.07-2.73-.07-5.38-.07-8.04h7.97v-7.97h7.97v7.97h7.97c0,2.66,0,5.31-.07,8.04-2.52,.07-5.11,.07-7.69,.07v7.72h7.62c0-2.68,0-5.27,.07-7.79,2.65-.07,5.22-.07,8.04-.07,0-2.82,0-5.39,.07-8.04,2.52-.07,5.11-.07,7.69-.07v-7.72h-7.62c0,2.68,0,5.27-.07,7.79-2.73,.07-5.38,.07-8.04,.07v-7.97h-7.97v-7.97h7.97v-7.97c2.66,0,5.31,0,8.04,.07,.07,2.52,.07,5.1,.07,7.68h7.72v-7.61c-2.68,0-5.27,0-7.79-.07-.07-5.29-.07-10.51-.07-16h-7.97v-8.15h7.97v-7.79h7.97v23.9h7.97Z"/>
    <path fill="#fefaee" d="M24.07,207.17v-31.87h7.97v31.87h-7.97Z"/>
    <path fill="#fefe88" d="M32.04,207.17v-7.97h7.97v7.97h7.97v7.97h-15.94v-7.97Z"/>
    <path fill="#fefe88" d="M32.04,191.23v-15.93h-7.97v-31.87h-7.97v-31.87H87.82v8c2.89-.1,5.45,.12,7.97-.16v-7.84h15.94v8c2.89-.1,5.45,.12,7.97-.16v-7.84h7.97v8c2.89-.1,5.45,.12,7.97-.16v-7.84h7.97v8c2.89-.1,5.45,.12,7.97-.16v-7.84h23.91c0,2.66,0,5.31-.07,8.04-2.52,.07-5.11,.07-7.69,.07v7.72h7.62c0-2.68,0-5.27,.07-7.79,2.65-.07,5.22-.07,8.04-.07v-7.97h7.97v-7.97h7.97v15.93h-7.97v7.97h-8c.1,2.89-.12,5.45,.16,7.97,2.88,0,5.36,0,7.91,.07,.07,2.52,.07,5.1,.07,7.68h7.72v-7.61c-2.68,0-5.27,0-7.79-.07-.07-2.73-.07-5.38-.07-8.04h7.97v-7.97h7.97v31.69h-7.97v8.15h-7.97v-8c-2.89,.1-5.45-.12-7.97,.16v7.84h-7.97v-15.96c-2.88,.11-5.45-.12-7.97,.16v15.8h-7.97v-15.69h-8.13v7.9h-7.8v7.79h-7.97v-8c-2.89,.1-5.45-.12-7.97,.16v7.84h-8c.1,2.89-.12,5.45,.16,7.97h7.84v7.97h15.94v7.97h-15.94v7.97h-15.94v-7.97h8c-.1-2.89,.12-5.45-.16-7.97h-7.84v-8c-2.89,.1-5.45-.12-7.97,.16v7.84c-2.66,0-5.31,0-8.04-.07-.07-2.52-.07-5.1-.07-7.68h-7.72v7.61c2.68,0,5.27,0,7.79,.07,.07,2.65,.07,5.22,.07,8.04h7.97v7.97h-7.97v7.97h-15.94v7.97h-7.92v7.77h-15.99v-7.77h7.97c0-2.82,0-5.39,.07-8.04,2.52-.07,5.11-.07,7.69-.07v-7.72h-7.62c0,2.68,0,5.27-.07,7.79-2.65,.07-5.22,.07-8.04,.07v7.97h-7.97v-7.97h-7.97v-7.97h-7.97Zm47.96-7.82v7.61h7.72v-7.61c-2.68,0-5.27,0-8-.28v-7.61h-7.72v7.61c2.68,0,5.27,0,8,.28Zm-23.91-7.97v7.61h7.72v-7.61c-2.68,0-5.27,0-7.86-.14,0-2.66,0-5.31,.14-8.11h7.62v-7.72h-7.62c0,2.68,0,5.27-.14,7.86h-7.97c0,2.82,0,5.39-.14,8.11h-7.62v7.72h7.62c0-2.68,0-5.27,.14-7.86,2.66,0,5.31,0,8.11,.14Zm23.76-32.01h8c-.1-2.89,.12-5.45-.16-7.97-2.88,0-5.36,0-7.98-.14v-7.61h-7.72v7.61c2.68,0,5.27,0,7.86,.14,0,2.66,0,5.31-.14,8.11h-7.62v7.72h7.62c0-2.68,0-5.27,.14-7.86Zm24.05-7.82v7.61h7.72v-7.61c-2.68,0-5.27,0-8-.28v-7.61h-7.72v7.61c2.68,0,5.27,0,8,.28Zm-56.09-.23v-7.91c-2.72,.1-5.28-.12-7.64,.13v7.78h7.64Zm87.9-.09h7.91c-.1-2.72,.13-5.28-.13-7.63h-7.78v7.63Zm23.66,.09v-7.91c-2.72,.1-5.28-.12-7.64,.13v7.78h7.64Zm-31.88,7.97v-7.91c-2.72,.1-5.28-.13-7.63,.13v7.78h7.63Zm-71.39,.17v7.96c2.72-.25,5.29,.18,7.64-.24v-7.72h-7.64Zm-16.19,8.04h-7.63v7.64h7.63v-7.64Zm47.9,7.66c2.66,.23,5.32,.28,7.79-.01v-7.83c-2.72,.1-5.28-.13-7.79,.15v7.69Zm16.11-7.73v7.91c2.72-.1,5.28,.13,7.63-.13v-7.78h-7.63Zm-24.25,15.76v-7.9c-2.72,.1-5.28-.13-7.62,.13v7.78h7.62Z"/>
    <path fill="#fefaee" d="M111.73,111.56H16.1v31.87h-7.97v-39.83H191.42v7.97H111.73Z"/>
    <path fill="#fefe88" d="M32.04,47.83h7.97v-7.97h39.84v7.97h-31.95v8.03h-7.9v39.77h-7.97V47.83Z"/>
    <path fill="#bfbfbf" d="M79.85,95.63h-31.88v-7.97h31.88v7.97Z"/>
    <path fill="#bfbfbf" d="M199.39,95.63h-31.88v-7.97h31.88v7.97Z"/>
    <path fill="#858585" d="M47.98,87.66v7.97h-7.97v-7.97h7.97Z"/>
    <path fill="#00349e" d="M79.85,95.63v-7.97h7.97v7.97h-7.97Z"/>
    <path fill="#9f9fa3" d="M87.82,95.63v-7.97h7.97v7.97h-7.97Z"/>
    <path fill="#bfbfbf" d="M95.79,95.63v-7.97h7.97v7.97h-7.97Z"/>
    <path fill="#00349e" d="M103.76,95.63v-7.97h7.97v7.97h-7.97Z"/>
    <path fill="#9f9fa3" d="M111.73,95.63v-7.97h7.97v7.97h-7.97Z"/>
    <path fill="#bfbfbf" d="M119.7,95.63v-7.97h7.97v7.97h-7.97Z"/>
    <path fill="#00349e" d="M127.67,95.63v-7.97h7.97v7.97h-7.97Z"/>
    <path fill="#9f9fa3" d="M135.64,95.63v-7.97h7.97v7.97h-7.97Z"/>
    <path fill="#bfbfbf" d="M143.61,95.63v-7.97h7.97v7.97h-7.97Z"/>
    <path fill="#00349e" d="M151.57,95.63v-7.97h7.97v7.97h-7.97Z"/>
    <path fill="#9f9fa3" d="M159.54,95.63v-7.97h7.97v7.97h-7.97Z"/>
    <path fill="#bfbfbf" d="M199.39,103.6v-7.97h7.97v7.97h-7.97Z"/>
    <path fill="#858585" d="M87.82,39.86h7.97v7.97h-7.97v-7.97Z"/>
    <path fill="#cbcb53" d="M87.82,39.86v7.97h-7.97v-7.97h7.97Z"/>
    <path fill="#cbcb53" d="M199.39,63.76h15.75v7.97h8.16v15.93h-7.97v-7.97h-7.97v-7.97h-7.97v-7.97Z"/>
    <path fill="#4d4d4d" d="M199.39,63.76v7.97h-7.97v-7.97h7.97Z"/>
    <path fill="olive" d="M223.29,87.66v-15.93h7.97v23.9h-7.97v-7.97Z"/>
    <path fill="#4d4d4d" d="M223.29,95.63h7.97v7.97h-7.97v-7.97Z"/>
    <path fill="#fefaee" d="M16.1,143.43h7.97v31.87h-7.97v-31.87Z"/>
    <path fill="#fefaee" d="M87.82,47.83h7.97v-7.97h7.97v-7.97h7.97v-7.97h7.97v-7.97h15.94v7.97h7.97v7.97h7.97v7.97h7.97v7.97h7.97v7.97h7.97v7.97h7.97v7.97h7.97v7.97h-39.84v-8c-2.89,.1-5.45-.12-7.97,.16v7.84h-7.97v-15.93h-7.97v-15.96c-2.89,.1-5.45-.12-7.97,.16v7.84h-7.97v7.97h-7.97v7.97h-7.97v7.97h-31.88v-7.97h7.97v-7.97h7.97v-7.97h7.97v-7.97Z"/>
    <path fill="#bfbfbf" d="M223.29,103.6h7.97v7.97h-7.97v-7.97Z"/>
    <path fill="#bfbfbf" d="M239.23,111.56v7.97h-7.97v-7.97h7.97Z"/>
    <path fill="#bfbfbf" d="M143.61,23.93h-7.97v-7.97h7.97v7.97Z"/>
    <path fill="#bfbfbf" d="M151.57,31.9h-7.97v-7.97h7.97v7.97Z"/>
    <path fill="#ada88c" d="M135.64,15.96h-7.97V8h7.97v7.97Z"/>
    <path fill="#ada88c" d="M191.42,71.73h-7.97v-7.97h7.97v7.97Z"/>
    <path fill="#bfbfbf" d="M183.45,63.76h-7.97v-7.97h7.97v7.97Z"/>
    <path fill="#bfbfbf" d="M175.48,55.8h-7.97v-7.97h7.97v7.97Z"/>
    <path fill="#bfbfbf" d="M167.51,47.83h-7.97v-7.97h7.97v7.97Z"/>
    <path fill="#bfbfbf" d="M159.54,39.86h-7.97v-7.97h7.97v7.97Z"/>
    <path fill="#989800" d="M215.32,159.36v-23.9h7.97v23.9h-7.97Z"/>
    <path d="M223.29,151.4v-7.97h7.97v7.97h-7.97Z"/>
    <path fill="#cbcb53" d="M215.32,159.36h7.97v7.97h-7.97v-7.97Z"/>
    <path fill="#bfbfbf" d="M239.23,135.46h-7.97v-7.97h7.97v7.97Z"/>
    <path fill="#bfbfbf" d="M231.26,143.43h-7.97v-7.97h7.97v7.97Z"/>
    <path fill="#e6e6d3" d="M231.26,135.46h-7.97v-23.9h7.97v7.97h7.97v7.97h-7.97v7.97Z"/>
    <path fill="#fefe88" d="M135.64,207.17h-15.94v-8.15h7.97v-7.79h15.94v8.15h-7.97v7.79Z"/>
    <path fill="#fefe88" d="M111.73,207.17h-15.94v-7.97h7.97v-7.97h7.97v15.93Z"/>
    <path fill="#fefe88" d="M207.36,175.3h-7.97v-15.93h7.97v15.93Z"/>
    <path fill="#fefe88" d="M159.54,207.17h-7.97v-15.93h7.97v15.93Z"/>
    <path fill="#fefe88" d="M95.79,207.17v7.81c-2.54,.35-5.14,.09-7.72,.14-2.63,.05-5.26,.01-8.22,.01v-7.97h15.94Z"/>
    <path fill="#fefe88" d="M151.57,207.17v7.81c-2.54,.35-5.14,.09-7.72,.14-2.63,.05-5.26,.01-8.22,.01v-7.97h15.94Z"/>
    <path fill="#cbcb53" d="M215.32,135.46v7.97h-7.97v-7.97h7.97Z"/>
    <path fill="#fefe88" d="M199.39,175.3v7.97h-7.97v-7.97h7.97Z"/>
    <path fill="#fefe88" d="M207.5,175.44h7.72v7.61h-7.72v-7.61Z"/>
    <path fill="#fefe88" d="M191.42,191.23h-7.97v-7.97h7.97v7.97Z"/>
    <path fill="#fefe88" d="M183.45,191.23v7.97h-7.97v-7.97h7.97Z"/>
    <path fill="#fefe88" d="M199.39,199.2h-7.97v-7.97h7.97v7.97Z"/>
    <path fill="#fefe88" d="M207.5,199.06v-7.72h7.62v7.72h-7.62Z"/>
    <path fill="#fefe88" d="M175.48,199.2v7.97h-7.97v-7.97h7.97Z"/>
    <path fill="#fefe88" d="M199.39,199.2h7.97v7.97h-7.97v-7.97Z"/>
    <path fill="#fefe88" d="M119.7,207.17v7.84c-2.52,.28-5.08,.05-7.97,.16v-8h7.97Z"/>
    <path fill="#fefe88" d="M167.51,207.17v7.84c-2.52,.28-5.08,.05-7.97,.16v-8h7.97Z"/>
    <path fill="#fefe88" d="M175.62,207.31h7.72v7.61h-7.72v-7.61Z"/>
    <path fill="#fefe88" d="M199.24,207.31v7.72h-7.62v-7.72h7.62Z"/>
    <path fill="#fec890" d="M32.04,191.23h7.97v7.97h-7.97v-7.97Z"/>
    <path fill="#fec890" d="M40.01,199.2h7.97v7.97h-7.97v-7.97Z"/>
    <path fill="#fec890" d="M135.64,159.36h7.97v15.93h-15.94v-7.97h7.97v-7.97Z"/>
    <path fill="#fec890" d="M143.61,159.36v-7.79h7.8v-7.9h8.13v15.69h-15.94Z"/>
    <path fill="#989800" d="M215.32,135.46h-7.97v-23.9h7.97v23.9Z"/>
    <path fill="#fec890" d="M119.7,207.17h-7.97v-15.93h15.94v7.79h-7.97v8.15Z"/>
    <path fill="#fec890" d="M199.39,175.3h-7.97v-15.93h7.97v15.93Z"/>
    <path fill="#fec890" d="M175.48,159.36h7.97v15.93h-7.97v-15.93Z"/>
    <path fill="#fec890" d="M143.61,191.23h-15.94v-7.97h15.94v7.97Z"/>
    <path fill="#fec890" d="M167.51,159.36v-15.8c2.52-.28,5.08-.05,7.97-.16v15.96h-7.97Z"/>
    <path fill="#fec890" d="M95.79,207.17h-15.94v-7.97h15.94v7.97Z"/>
    <path fill="#989800" d="M199.39,103.6h7.97v7.97h-7.97v-7.97Z"/>
    <path fill="#fec890" d="M87.82,111.56h7.97v7.84c-2.52,.28-5.08,.05-7.97,.16v-8Z"/>
    <path fill="#fec890" d="M111.73,111.56h7.97v7.84c-2.52,.28-5.08,.05-7.97,.16v-8Z"/>
    <path fill="#fec890" d="M127.67,111.56h7.97v7.84c-2.52,.28-5.08,.05-7.97,.16v-8Z"/>
    <path fill="#fec890" d="M143.61,111.56h7.97v7.84c-2.52,.28-5.08,.05-7.97,.16v-8Z"/>
    <path fill="#cbcb53" d="M199.39,111.56h7.97v7.97h-7.97v-7.97Z"/>
    <path fill="#fec890" d="M175.34,119.67v7.72h-7.62v-7.72h7.62Z"/>
    <path fill="#fec890" d="M199.39,119.53v7.97h-7.97v-7.97h7.97Z"/>
    <path fill="#fec890" d="M47.81,135.38h-7.64v-7.78c2.36-.25,4.92-.03,7.64-.13v7.91Z"/>
    <path fill="#fec890" d="M79.71,135.32h-7.72v-7.61h7.72v7.61Z"/>
    <path fill="#fec890" d="M103.62,135.32h-7.72v-7.61h7.72v7.61Z"/>
    <path fill="#fec890" d="M135.72,135.3v-7.63h7.78c.25,2.35,.03,4.91,.13,7.63h-7.91Z"/>
    <path fill="#fec890" d="M159.38,135.38h-7.64v-7.78c2.36-.25,4.92-.03,7.64-.13v7.91Z"/>
    <path fill="#fec890" d="M191.42,135.46h-7.84c-.28-2.52-.05-5.08-.16-7.97h8v7.97Z"/>
    <path fill="#fec890" d="M79.85,143.43v-7.97h7.84c.28,2.52,.05,5.08,.16,7.97h-8Z"/>
    <path fill="#fec890" d="M103.9,135.61h7.72v7.61h-7.72v-7.61Z"/>
    <path fill="#fec890" d="M127.5,143.35h-7.63v-7.78c2.34-.26,4.9-.03,7.63-.13v7.91Z"/>
    <path fill="#fec890" d="M191.56,135.61h7.72v7.61h-7.72v-7.61Z"/>
    <path fill="#fec890" d="M56.11,143.52h7.64v7.72c-2.36,.42-4.93-.02-7.64,.24v-7.96Z"/>
    <path fill="#fec890" d="M79.71,143.57v7.72h-7.62v-7.72h7.62Z"/>
    <path fill="#fec890" d="M39.92,151.56v7.64h-7.63v-7.64h7.63Z"/>
    <path fill="#fec890" d="M87.82,159.21v-7.69c2.51-.28,5.07-.05,7.79-.15v7.83c-2.48,.29-5.13,.24-7.79,.01Z"/>
    <path fill="#fec890" d="M103.93,151.48h7.63v7.78c-2.34,.26-4.9,.03-7.63,.13v-7.91Z"/>
    <path fill="#fec890" d="M127.67,159.36v-7.84c2.52-.28,5.08-.05,7.97-.16v8h-7.97Z"/>
    <path fill="#fec890" d="M183.45,159.36v-7.84c2.52-.28,5.08-.05,7.97-.16v8h-7.97Z"/>
    <path fill="#fec890" d="M56.09,167.19v-7.72h7.62v7.72h-7.62Z"/>
    <path fill="#fec890" d="M79.68,167.25h-7.62v-7.78c2.34-.26,4.9-.03,7.62-.13v7.9Z"/>
    <path fill="#fec890" d="M127.67,167.33h-7.84c-.28-2.52-.05-5.08-.16-7.97h8v7.97Z"/>
    <path fill="#fec890" d="M159.54,159.36h7.97v7.97h-7.97v-7.97Z"/>
    <path fill="#fec890" d="M55.95,167.33v7.97h-7.97v-7.97h7.97Z"/>
    <path fill="#fec890" d="M95.65,175.16h-7.72v-7.61h7.72v7.61Z"/>
    <path fill="#fec890" d="M103.76,175.3v-7.84c2.52-.28,5.08-.05,7.97-.16v8h-7.97Z"/>
    <path fill="#fec890" d="M47.84,175.44v7.72h-7.62v-7.72h7.62Z"/>
    <path fill="#fec890" d="M56.09,175.44h7.72v7.61h-7.72v-7.61Z"/>
    <path fill="#fec890" d="M79.71,183.12h-7.72v-7.61h7.72v7.61Z"/>
    <path fill="#fec890" d="M103.76,183.27h-7.97v-7.97h7.97v7.97Z"/>
    <path fill="#fec890" d="M111.73,175.3h7.84c.28,2.52,.05,5.08,.16,7.97h-8v-7.97Z"/>
    <path fill="#fec890" d="M143.61,183.27v-7.97h7.97v7.97h-7.97Z"/>
    <path fill="#fec890" d="M80,183.41h7.72v7.61h-7.72v-7.61Z"/>
    <path fill="#fec890" d="M111.73,191.23h-7.97v-7.97h7.97v7.97Z"/>
    <path fill="#fec890" d="M64.06,199.06v-7.72h7.62v7.72h-7.62Z"/>
    <path fill="#fec890" d="M103.76,191.23v7.97h-7.97v-7.97h7.97Z"/>
    <path fill="#fec890" d="M63.92,199.2v7.97h-7.97v-7.97h7.97Z"/>
    <path fill="#fec890" d="M175.48,111.56h7.97v7.97h-7.97v-7.97Z"/>
    <path fill="#cbcb53" d="M40.01,71.73v-15.87h7.9v-8.03h23.98v7.97h-7.97v7.97h-7.97v7.97h-15.94Z"/>
    <path fill="#989800" d="M47.98,87.66h-7.97v-7.97h7.97v7.97Z"/>
    <path fill="#cbcb00" d="M47.98,79.7h-7.97v-7.97h7.97v7.97Z"/>
    <path fill="#989800" d="M71.89,55.8v-7.97h7.97v7.97h-7.97Z"/>
    <path fill="#e6e6d3" d="M63.92,79.7h23.91v7.97h-31.88v-7.97h7.97Z"/>
    <path fill="#858585" d="M55.95,79.7v7.97h-7.97v-7.97h7.97Z"/>
    <path fill="#e6e6d3" d="M167.51,79.7h31.88v7.97h-31.88v-7.97Z"/>
    <path fill="#e6e6d3" d="M207.36,95.63h-7.97v-7.97h7.97v7.97Z"/>
    <path fill="#00349e" d="M87.82,87.66v-7.97h7.97v7.97h-7.97Z"/>
    <path fill="#9f9fa3" d="M95.79,87.66v-7.97h7.97v7.97h-7.97Z"/>
    <path fill="#e6e6d3" d="M103.76,87.66v-7.97h7.97v7.97h-7.97Z"/>
    <path fill="#00349e" d="M111.73,87.66v-7.97h7.97v7.97h-7.97Z"/>
    <path fill="#9f9fa3" d="M119.7,87.66v-7.97h7.97v7.97h-7.97Z"/>
    <path fill="#e6e6d3" d="M127.67,87.66v-7.97h7.97v7.97h-7.97Z"/>
    <path fill="#00349e" d="M135.64,87.66v-7.97h7.97v7.97h-7.97Z"/>
    <path fill="#9f9fa3" d="M143.61,87.66v-7.97h7.97v7.97h-7.97Z"/>
    <path fill="#e6e6d3" d="M151.57,87.66v-7.97h7.97v7.97h-7.97Z"/>
    <path fill="#00349e" d="M159.54,87.66v-7.97h7.97v7.97h-7.97Z"/>
    <path fill="#e6e6d3" d="M207.36,103.6v-7.97h7.97v7.97h-7.97Z"/>
    <path fill="#858585" d="M79.85,55.8v-7.97h7.97v7.97h-7.97Z"/>
    <path fill="#222" d="M199.39,71.73h7.97v7.97h-7.97v-7.97Z"/>
    <path fill="#4d4d4d" d="M207.36,79.7h7.97v7.97h-7.97v-7.97Z"/>
    <path fill="#4d4d4d" d="M223.29,87.66v7.97h-7.97v-7.97h7.97Z"/>
    <path fill="#bfbfbf" d="M199.39,71.73v7.97h-7.97v-7.97h7.97Z"/>
    <path fill="#bfbfbf" d="M215.32,95.63h7.97v7.97h-7.97v-7.97Z"/>
    <path fill="#9f9fa3" d="M135.64,79.7h-7.97v-7.97h7.97v7.97Z"/>
    <path fill="#00349e" d="M151.57,79.7h-7.97v-7.84c2.52-.28,5.08-.05,7.97-.16v8Z"/>
    <path fill="#00349e" d="M103.76,79.7h-7.97v-7.97h7.97v7.97Z"/>
    <path fill="#858585" d="M63.92,79.7h-7.97v-7.97h7.97v7.97Z"/>
    <path fill="#00349e" d="M135.64,71.73h-7.97v-7.97h7.97v7.97Z"/>
    <path fill="#00349e" d="M103.76,71.73v-7.97h7.97v7.97h-7.97Z"/>
    <path fill="#858585" d="M71.89,63.76v7.97h-7.97v-7.97h7.97Z"/>
    <path fill="#9f9fa3" d="M127.67,55.8v7.97h-7.97v-7.97h7.97Z"/>
    <path fill="#00349e" d="M119.7,55.8v7.97h-7.97v-7.97h7.97Z"/>
    <path fill="#858585" d="M71.89,55.8h7.97v7.97h-7.97v-7.97Z"/>
    <path fill="#00349e" d="M127.67,55.8h-7.97v-7.84c2.52-.28,5.08-.05,7.97-.16v8Z"/>
    <path fill="#e6e6d3" d="M215.32,103.6h7.97v7.97h-7.97v-7.97Z"/>
    <path fill="#bfbfbf" d="M215.32,111.56h7.97v23.9h-7.97v-23.9Z"/>
    <path fill="#fec890" d="M151.57,207.17h-15.94v-7.79h7.97v-8.15h7.97v15.93Z"/>
    <path fill="#fec890" d="M167.51,207.17h-7.97v-15.93h15.94v7.97h-7.97v7.97Z"/>
    <path fill="#fec890" d="M159.54,191.23h-7.97v-7.97h7.97v7.97Z"/>
    <path fill="#fec890" d="M191.42,183.27h-7.97v-7.97h7.97v7.97Z"/>
    <path fill="#fec890" d="M183.45,191.23h-7.97v-7.97h7.97v7.97Z"/>
    <path fill="#fefe88" d="M151.57,175.3h-7.97v-15.93h15.94v7.97h-7.97v7.97Z"/>
    <path fill="#fefe88" d="M127.67,167.33v-7.97h7.97v7.97h-7.97Z"/>
    <path fill="#bfbfbf" d="M215.32,103.6v7.97h-7.97v-7.97h7.97Z"/>
    <path fill="#fefe88" d="M191.42,175.3h-7.97v-15.93h7.97v15.93Z"/>
    <path fill="#fefe88" d="M159.54,167.33h7.97v-7.97h7.97v15.93h-15.94v-7.97Z"/>
    <path fill="#fefe88" d="M183.45,183.27h-7.97v-7.97h7.97v7.97Z"/>
    <path fill="#fefe88" d="M151.57,183.27v7.97h-7.97v-7.97h7.97Z"/>
    <path fill="#fefe88" d="M111.73,183.27h-7.97v-7.97h7.97v7.97Z"/>
    <path fill="#fefe88" d="M159.54,183.27h-7.97v-7.97h7.97v7.97Z"/>
    <path fill="#989800" d="M55.95,71.73v7.97h-7.97v-7.97h7.97Z"/>
    <path fill="#989800" d="M63.92,63.76v7.97h-7.97v-7.97h7.97Z"/>
    <path fill="#989800" d="M71.89,55.8v7.97h-7.97v-7.97h7.97Z"/>
    <path fill="#bfbfbf" d="M207.36,79.7v7.97h-7.97v-7.97h7.97Z"/>
    <path fill="#bfbfbf" d="M215.32,87.66v7.97h-7.97v-7.97h7.97Z"/>
    <path fill="#9f9fa3" d="M103.76,71.73h7.97v7.97h-7.97v-7.97Z"/>
    <path fill="#e6e6d3" d="M111.73,79.7v-7.97h7.97v7.97h-7.97Z"/>
    <path fill="#00349e" d="M119.7,79.7v-7.97h7.97v7.97h-7.97Z"/>
    <path fill="#e6e6d3" d="M127.67,71.73h-7.97v-7.97h7.97v7.97Z"/>
    <path fill="#9f9fa3" d="M119.7,63.76v7.97h-7.97v-7.97h7.97Z"/>
    <path fill="#fefe88" d="M175.48,183.27v7.97h-15.94v-7.97h15.94Z"/>
    <path fill="#fec890" d="M159.54,175.3h-7.97v-7.97h7.97v7.97Z"/>
    <path fill="#fec890" d="M175.48,183.27h-15.94v-7.97h15.94v7.97Z"/>
  </g>
</svg>