<svg xmlns="http://www.w3.org/2000/svg" xml:space="preserve" viewBox="0 0 537.6 537.6" width="537.6" height="537.6">
  <path fill="currentColor" d="M22.4 56V22.4h22.4V0h-28C7.6 0 0 7.6 0 16.8V56h22.4zm459.2-33.6h33.6v22.4h22.4v-28C537.6 7.6 530 0 520.8 0h-39.2v22.4zM78.4 0H112v22.4H78.4V0zm67.2 0h33.6v22.4h-33.6V0zm67.2 0h33.6v22.4h-33.6V0zM280 0h33.6v22.4H280V0zm67.2 0h33.6v22.4h-33.6V0zm67.2 0H448v22.4h-33.6V0zm100.8 78.4h22.4V112h-22.4V78.4zm0 67.2h22.4v33.6h-22.4v-33.6zm0 67.2h22.4v33.6h-22.4v-33.6zm0 67.2h22.4v33.6h-22.4V280zm0 67.2h22.4v33.6h-22.4v-33.6zm0 67.2h22.4V448h-22.4v-33.6zM0 425.6h22.4v33.6H0v-33.6zm0-67.2h22.4V392H0v-33.6zm0-67.2h22.4v33.6H0v-33.6zM0 224h22.4v33.6H0V224zm0-67.2h22.4v33.6H0v-33.6zm0-67.2h22.4v33.6H0V89.6zm515.2 392v33.6h-22.4v22.4h28c9.2 0 16.8-7.6 16.8-16.8v-39.2h-22.4zM56 515.2H22.4v-22.4H0v28c0 9.2 7.6 16.8 16.8 16.8H56v-22.4zm369.6 0h33.6v22.4h-33.6v-22.4zm-67.2 0H392v22.4h-33.6v-22.4zm-67.2 0h33.6v22.4h-33.6v-22.4zm-67.2 0h33.6v22.4H224v-22.4zm-67.2 0h33.6v22.4h-33.6v-22.4zm-67.2 0h33.6v22.4H89.6v-22.4z"/>
</svg>
