<svg xmlns="http://www.w3.org/2000/svg" xml:space="preserve" viewBox="0 0 40 47" width="40" height="47">
  <path d="M36 46h1v1h-1zm-1 0h1v1h-1zm-1 0h1v1h-1zm-1 0h1v1h-1zm-1 0h1v1h-1zm-1 0h1v1h-1zm-1 0h1v1h-1zm-1 0h1v1h-1zm-1 0h1v1h-1zm-1 0h1v1h-1zm-1 0h1v1h-1zm-1 0h1v1h-1zm-1 0h1v1h-1zm-1 0h1v1h-1zm-1 0h1v1h-1zm-1 0h1v1h-1zm-1 0h1v1h-1zm-1 0h1v1h-1zm-1 0h1v1h-1zm-1 0h1v1h-1zm-1 0h1v1h-1zm-1 0h1v1h-1zm-1 0h1v1h-1zm-1 0h1v1h-1zm-1 0h1v1h-1zm-1 0h1v1h-1zm-1 0h1v1h-1zm-1 0h1v1H9zm-1 0h1v1H8zm-1 0h1v1H7zm-1 0h1v1H6zm-1 0h1v1H5zm-1 0h1v1H4zm-1 0h1v1H3z"/>
  <path d="M37 45h1v1h-1z"/>
  <path fill="gray" d="M36 45h1v1h-1zm-1 0h1v1h-1z"/>
  <path d="M34 45h1v1h-1z"/>
  <path fill="silver" d="M33 45h1v1h-1zm-1 0h1v1h-1zm-1 0h1v1h-1zm-1 0h1v1h-1zm-1 0h1v1h-1zm-1 0h1v1h-1zm-1 0h1v1h-1zm-1 0h1v1h-1zm-1 0h1v1h-1zm-1 0h1v1h-1zm-1 0h1v1h-1zm-1 0h1v1h-1zm-1 0h1v1h-1zm-1 0h1v1h-1zm-1 0h1v1h-1zm-1 0h1v1h-1zm-1 0h1v1h-1zm-1 0h1v1h-1zm-1 0h1v1h-1zm-1 0h1v1h-1zm-1 0h1v1h-1zm-1 0h1v1h-1zm-1 0h1v1h-1zm-1 0h1v1h-1zm-1 0h1v1H9zm-1 0h1v1H8zm-1 0h1v1H7zm-1 0h1v1H6zm-1 0h1v1H5zm-1 0h1v1H4zm-1 0h1v1H3z"/>
  <path fill="gray" d="M2 45h1v1H2z"/>
  <path d="M38 44h1v1h-1z"/>
  <path fill="gray" d="M37 44h1v1h-1z"/>
  <path fill="silver" d="M36 44h1v1h-1z"/>
  <path d="M35 44h1v1h-1z"/>
  <path fill="silver" d="M34 44h1v1h-1z"/>
  <path fill="#fff" d="M33 44h1v1h-1zm-1 0h1v1h-1zm-1 0h1v1h-1zm-1 0h1v1h-1zm-1 0h1v1h-1zm-1 0h1v1h-1zm-1 0h1v1h-1zm-1 0h1v1h-1zm-1 0h1v1h-1zm-1 0h1v1h-1zm-1 0h1v1h-1zm-1 0h1v1h-1zm-1 0h1v1h-1zm-1 0h1v1h-1zm-1 0h1v1h-1zm-1 0h1v1h-1zm-1 0h1v1h-1zm-1 0h1v1h-1zm-1 0h1v1h-1zm-1 0h1v1h-1zm-1 0h1v1h-1zm-1 0h1v1h-1zm-1 0h1v1h-1zm-1 0h1v1h-1zm-1 0h1v1H9zm-1 0h1v1H8zm-1 0h1v1H7zm-1 0h1v1H6zm-1 0h1v1H5zm-1 0h1v1H4zm-1 0h1v1H3z"/>
  <path fill="silver" d="M2 44h1v1H2z"/>
  <path fill="gray" d="M1 44h1v1H1z"/>
  <path d="M39 43h1v1h-1z"/>
  <path fill="gray" d="M38 43h1v1h-1z"/>
  <path fill="silver" d="M37 43h1v1h-1z"/>
  <path d="M36 43h1v1h-1z"/>
  <path fill="silver" d="M35 43h1v1h-1z"/>
  <path fill="#fff" d="M34 43h1v1h-1zm-1 0h1v1h-1zm-1 0h1v1h-1zm-1 0h1v1h-1zm-1 0h1v1h-1zm-1 0h1v1h-1zm-1 0h1v1h-1zm-1 0h1v1h-1zm-1 0h1v1h-1zm-1 0h1v1h-1zm-1 0h1v1h-1zm-1 0h1v1h-1zm-1 0h1v1h-1zm-1 0h1v1h-1zm-1 0h1v1h-1zm-1 0h1v1h-1zm-1 0h1v1h-1zm-1 0h1v1h-1zm-1 0h1v1h-1zm-1 0h1v1h-1zm-1 0h1v1h-1zm-1 0h1v1h-1zm-1 0h1v1h-1zm-1 0h1v1h-1zm-1 0h1v1h-1zm-1 0h1v1H9zm-1 0h1v1H8zm-1 0h1v1H7zm-1 0h1v1H6zm-1 0h1v1H5zm-1 0h1v1H4zm-1 0h1v1H3zm-1 0h1v1H2zm-1 0h1v1H1z"/>
  <path fill="gray" d="M0 43h1v1H0z"/>
  <path d="M39 42h1v1h-1z"/>
  <path fill="gray" d="M38 42h1v1h-1z"/>
  <path fill="silver" d="M37 42h1v1h-1z"/>
  <path d="M36 42h1v1h-1z"/>
  <path fill="silver" d="M35 42h1v1h-1z"/>
  <path fill="#fff" d="M34 42h1v1h-1zm-1 0h1v1h-1zm-1 0h1v1h-1zm-1 0h1v1h-1zm-1 0h1v1h-1zm-1 0h1v1h-1zm-1 0h1v1h-1zm-1 0h1v1h-1zm-1 0h1v1h-1zm-1 0h1v1h-1zm-1 0h1v1h-1zm-1 0h1v1h-1zm-1 0h1v1h-1zm-1 0h1v1h-1zm-1 0h1v1h-1zm-1 0h1v1h-1zm-1 0h1v1h-1zm-1 0h1v1h-1zm-1 0h1v1h-1zm-1 0h1v1h-1zm-1 0h1v1h-1zm-1 0h1v1h-1zm-1 0h1v1h-1zm-1 0h1v1h-1zm-1 0h1v1h-1zm-1 0h1v1H9zm-1 0h1v1H8zm-1 0h1v1H7zm-1 0h1v1H6zm-1 0h1v1H5zm-1 0h1v1H4zm-1 0h1v1H3zm-1 0h1v1H2zm-1 0h1v1H1z"/>
  <path fill="gray" d="M0 42h1v1H0z"/>
  <path d="M39 41h1v1h-1z"/>
  <path fill="gray" d="M38 41h1v1h-1z"/>
  <path fill="silver" d="M37 41h1v1h-1z"/>
  <path d="M36 41h1v1h-1z"/>
  <path fill="silver" d="M35 41h1v1h-1z"/>
  <path fill="#fff" d="M34 41h1v1h-1zm-1 0h1v1h-1zm-1 0h1v1h-1zm-1 0h1v1h-1zm-1 0h1v1h-1zm-1 0h1v1h-1zm-1 0h1v1h-1zm-1 0h1v1h-1zm-1 0h1v1h-1zm-1 0h1v1h-1zm-1 0h1v1h-1zm-1 0h1v1h-1zm-1 0h1v1h-1zm-1 0h1v1h-1zm-1 0h1v1h-1zm-1 0h1v1h-1zm-1 0h1v1h-1zm-1 0h1v1h-1zm-1 0h1v1h-1zm-1 0h1v1h-1zm-1 0h1v1h-1zm-1 0h1v1h-1zm-1 0h1v1h-1zm-1 0h1v1h-1zm-1 0h1v1h-1zm-1 0h1v1H9zm-1 0h1v1H8zm-1 0h1v1H7zm-1 0h1v1H6zm-1 0h1v1H5zm-1 0h1v1H4zm-1 0h1v1H3zm-1 0h1v1H2zm-1 0h1v1H1z"/>
  <path fill="gray" d="M0 41h1v1H0z"/>
  <path d="M39 40h1v1h-1z"/>
  <path fill="gray" d="M38 40h1v1h-1z"/>
  <path fill="silver" d="M37 40h1v1h-1z"/>
  <path d="M36 40h1v1h-1z"/>
  <path fill="silver" d="M35 40h1v1h-1z"/>
  <path fill="#fff" d="M34 40h1v1h-1zm-1 0h1v1h-1zm-1 0h1v1h-1zm-1 0h1v1h-1zm-1 0h1v1h-1zm-1 0h1v1h-1zm-1 0h1v1h-1zm-1 0h1v1h-1zm-1 0h1v1h-1zm-1 0h1v1h-1zm-1 0h1v1h-1zm-1 0h1v1h-1zm-1 0h1v1h-1zm-1 0h1v1h-1zm-1 0h1v1h-1zm-1 0h1v1h-1zm-1 0h1v1h-1zm-1 0h1v1h-1zm-1 0h1v1h-1zm-1 0h1v1h-1zm-1 0h1v1h-1zm-1 0h1v1h-1z"/>
  <path d="M12 40h1v1h-1zm-1 0h1v1h-1zm-1 0h1v1h-1zm-1 0h1v1H9zm-1 0h1v1H8zm-1 0h1v1H7zm-1 0h1v1H6zm-1 0h1v1H5zm-1 0h1v1H4z"/>
  <path fill="#fff" d="M3 40h1v1H3zm-1 0h1v1H2zm-1 0h1v1H1z"/>
  <path fill="gray" d="M0 40h1v1H0z"/>
  <path d="M39 39h1v1h-1z"/>
  <path fill="gray" d="M38 39h1v1h-1z"/>
  <path fill="silver" d="M37 39h1v1h-1z"/>
  <path d="M36 39h1v1h-1z"/>
  <path fill="silver" d="M35 39h1v1h-1z"/>
  <path fill="#fff" d="M34 39h1v1h-1zm-1 0h1v1h-1zm-1 0h1v1h-1zm-1 0h1v1h-1zm-1 0h1v1h-1zm-1 0h1v1h-1zm-1 0h1v1h-1zm-1 0h1v1h-1zm-1 0h1v1h-1zm-1 0h1v1h-1zm-1 0h1v1h-1zm-1 0h1v1h-1zm-1 0h1v1h-1zm-1 0h1v1h-1zm-1 0h1v1h-1zm-1 0h1v1h-1zm-1 0h1v1h-1zm-1 0h1v1h-1zm-1 0h1v1h-1zm-1 0h1v1h-1zm-1 0h1v1h-1zm-1 0h1v1h-1zm-1 0h1v1h-1zm-1 0h1v1h-1zm-1 0h1v1h-1zm-1 0h1v1H9zm-1 0h1v1H8zm-1 0h1v1H7zm-1 0h1v1H6zm-1 0h1v1H5zm-1 0h1v1H4zm-1 0h1v1H3zm-1 0h1v1H2zm-1 0h1v1H1z"/>
  <path fill="gray" d="M0 39h1v1H0z"/>
  <path d="M39 38h1v1h-1z"/>
  <path fill="gray" d="M38 38h1v1h-1z"/>
  <path fill="silver" d="M37 38h1v1h-1z"/>
  <path d="M36 38h1v1h-1z"/>
  <path fill="silver" d="M35 38h1v1h-1z"/>
  <path fill="#fff" d="M34 38h1v1h-1zm-1 0h1v1h-1zm-1 0h1v1h-1zm-1 0h1v1h-1zm-1 0h1v1h-1zm-1 0h1v1h-1zm-1 0h1v1h-1zm-1 0h1v1h-1zm-1 0h1v1h-1zm-1 0h1v1h-1zm-1 0h1v1h-1zm-1 0h1v1h-1zm-1 0h1v1h-1zm-1 0h1v1h-1zm-1 0h1v1h-1zm-1 0h1v1h-1zm-1 0h1v1h-1zm-1 0h1v1h-1zm-1 0h1v1h-1zm-1 0h1v1h-1zm-1 0h1v1h-1zm-1 0h1v1h-1z"/>
  <path d="M12 38h1v1h-1zm-1 0h1v1h-1zm-1 0h1v1h-1zm-1 0h1v1H9zm-1 0h1v1H8zm-1 0h1v1H7zm-1 0h1v1H6zm-1 0h1v1H5zm-1 0h1v1H4z"/>
  <path fill="#fff" d="M3 38h1v1H3zm-1 0h1v1H2zm-1 0h1v1H1z"/>
  <path fill="gray" d="M0 38h1v1H0z"/>
  <path d="M39 37h1v1h-1z"/>
  <path fill="gray" d="M38 37h1v1h-1z"/>
  <path fill="silver" d="M37 37h1v1h-1z"/>
  <path d="M36 37h1v1h-1z"/>
  <path fill="silver" d="M35 37h1v1h-1z"/>
  <path fill="#fff" d="M34 37h1v1h-1zm-1 0h1v1h-1zm-1 0h1v1h-1zm-1 0h1v1h-1zm-1 0h1v1h-1zm-1 0h1v1h-1zm-1 0h1v1h-1zm-1 0h1v1h-1zm-1 0h1v1h-1zm-1 0h1v1h-1zm-1 0h1v1h-1zm-1 0h1v1h-1zm-1 0h1v1h-1zm-1 0h1v1h-1zm-1 0h1v1h-1zm-1 0h1v1h-1zm-1 0h1v1h-1zm-1 0h1v1h-1zm-1 0h1v1h-1zm-1 0h1v1h-1zm-1 0h1v1h-1zm-1 0h1v1h-1zm-1 0h1v1h-1zm-1 0h1v1h-1zm-1 0h1v1h-1zm-1 0h1v1H9zm-1 0h1v1H8zm-1 0h1v1H7zm-1 0h1v1H6zm-1 0h1v1H5zm-1 0h1v1H4zm-1 0h1v1H3zm-1 0h1v1H2zm-1 0h1v1H1z"/>
  <path fill="gray" d="M0 37h1v1H0z"/>
  <path d="M39 36h1v1h-1z"/>
  <path fill="gray" d="M38 36h1v1h-1z"/>
  <path fill="silver" d="M37 36h1v1h-1z"/>
  <path d="M36 36h1v1h-1z"/>
  <path fill="silver" d="M35 36h1v1h-1z"/>
  <path fill="#fff" d="M34 36h1v1h-1zm-1 0h1v1h-1zm-1 0h1v1h-1zm-1 0h1v1h-1zm-1 0h1v1h-1zm-1 0h1v1h-1zm-1 0h1v1h-1zm-1 0h1v1h-1zm-1 0h1v1h-1zm-1 0h1v1h-1zm-1 0h1v1h-1zm-1 0h1v1h-1zm-1 0h1v1h-1zm-1 0h1v1h-1zm-1 0h1v1h-1zm-1 0h1v1h-1zm-1 0h1v1h-1zm-1 0h1v1h-1zm-1 0h1v1h-1zm-1 0h1v1h-1zm-1 0h1v1h-1zm-1 0h1v1h-1zm-1 0h1v1h-1zm-1 0h1v1h-1zm-1 0h1v1h-1zm-1 0h1v1H9zm-1 0h1v1H8zm-1 0h1v1H7zm-1 0h1v1H6zm-1 0h1v1H5zm-1 0h1v1H4zm-1 0h1v1H3zm-1 0h1v1H2zm-1 0h1v1H1z"/>
  <path fill="gray" d="M0 36h1v1H0z"/>
  <path d="M39 35h1v1h-1z"/>
  <path fill="gray" d="M38 35h1v1h-1z"/>
  <path fill="silver" d="M37 35h1v1h-1z"/>
  <path d="M36 35h1v1h-1z"/>
  <path fill="silver" d="M35 35h1v1h-1z"/>
  <path fill="#fff" d="M34 35h1v1h-1zm-1 0h1v1h-1zm-1 0h1v1h-1zm-1 0h1v1h-1zm-1 0h1v1h-1zm-1 0h1v1h-1zm-1 0h1v1h-1zm-1 0h1v1h-1zm-1 0h1v1h-1zm-1 0h1v1h-1zm-1 0h1v1h-1zm-1 0h1v1h-1zm-1 0h1v1h-1zm-1 0h1v1h-1zm-1 0h1v1h-1zm-1 0h1v1h-1zm-1 0h1v1h-1zm-1 0h1v1h-1zm-1 0h1v1h-1zm-1 0h1v1h-1zm-1 0h1v1h-1zm-1 0h1v1h-1zm-1 0h1v1h-1zm-1 0h1v1h-1zm-1 0h1v1h-1zm-1 0h1v1H9zm-1 0h1v1H8zm-1 0h1v1H7zm-1 0h1v1H6zm-1 0h1v1H5zm-1 0h1v1H4zm-1 0h1v1H3zm-1 0h1v1H2zm-1 0h1v1H1z"/>
  <path fill="gray" d="M0 35h1v1H0z"/>
  <path d="M39 34h1v1h-1z"/>
  <path fill="gray" d="M38 34h1v1h-1z"/>
  <path fill="silver" d="M37 34h1v1h-1z"/>
  <path d="M36 34h1v1h-1z"/>
  <path fill="silver" d="M35 34h1v1h-1z"/>
  <path fill="#fff" d="M34 34h1v1h-1zm-1 0h1v1h-1zm-1 0h1v1h-1zm-1 0h1v1h-1zm-1 0h1v1h-1zm-1 0h1v1h-1zm-1 0h1v1h-1zm-1 0h1v1h-1zm-1 0h1v1h-1zm-1 0h1v1h-1zm-1 0h1v1h-1zm-1 0h1v1h-1zm-1 0h1v1h-1zm-1 0h1v1h-1zm-1 0h1v1h-1zm-1 0h1v1h-1zm-1 0h1v1h-1zm-1 0h1v1h-1zm-1 0h1v1h-1zm-1 0h1v1h-1zm-1 0h1v1h-1zm-1 0h1v1h-1zm-1 0h1v1h-1zm-1 0h1v1h-1zm-1 0h1v1h-1zm-1 0h1v1H9zm-1 0h1v1H8zm-1 0h1v1H7zm-1 0h1v1H6zm-1 0h1v1H5zm-1 0h1v1H4zm-1 0h1v1H3zm-1 0h1v1H2zm-1 0h1v1H1z"/>
  <path fill="gray" d="M0 34h1v1H0z"/>
  <path d="M39 33h1v1h-1z"/>
  <path fill="gray" d="M38 33h1v1h-1z"/>
  <path fill="silver" d="M37 33h1v1h-1z"/>
  <path d="M36 33h1v1h-1z"/>
  <path fill="silver" d="M35 33h1v1h-1z"/>
  <path fill="#fff" d="M34 33h1v1h-1zm-1 0h1v1h-1z"/>
  <path d="M32 33h1v1h-1zm-1 0h1v1h-1zm-1 0h1v1h-1zm-1 0h1v1h-1zm-1 0h1v1h-1zm-1 0h1v1h-1zm-1 0h1v1h-1zm-1 0h1v1h-1zm-1 0h1v1h-1zm-1 0h1v1h-1zm-1 0h1v1h-1zm-1 0h1v1h-1zm-1 0h1v1h-1zm-1 0h1v1h-1zm-1 0h1v1h-1zm-1 0h1v1h-1zm-1 0h1v1h-1zm-1 0h1v1h-1zm-1 0h1v1h-1zm-1 0h1v1h-1zm-1 0h1v1h-1zm-1 0h1v1h-1zm-1 0h1v1h-1zm-1 0h1v1H9zm-1 0h1v1H8zm-1 0h1v1H7zm-1 0h1v1H6zm-1 0h1v1H5zm-1 0h1v1H4z"/>
  <path fill="#fff" d="M3 33h1v1H3zm-1 0h1v1H2zm-1 0h1v1H1z"/>
  <path fill="gray" d="M0 33h1v1H0z"/>
  <path d="M39 32h1v1h-1z"/>
  <path fill="gray" d="M38 32h1v1h-1z"/>
  <path fill="silver" d="M37 32h1v1h-1z"/>
  <path d="M36 32h1v1h-1z"/>
  <path fill="silver" d="M35 32h1v1h-1z"/>
  <path fill="#fff" d="M34 32h1v1h-1zm-1 0h1v1h-1zm-1 0h1v1h-1zm-1 0h1v1h-1zm-1 0h1v1h-1zm-1 0h1v1h-1zm-1 0h1v1h-1zm-1 0h1v1h-1zm-1 0h1v1h-1zm-1 0h1v1h-1zm-1 0h1v1h-1zm-1 0h1v1h-1zm-1 0h1v1h-1zm-1 0h1v1h-1zm-1 0h1v1h-1zm-1 0h1v1h-1zm-1 0h1v1h-1zm-1 0h1v1h-1zm-1 0h1v1h-1zm-1 0h1v1h-1zm-1 0h1v1h-1zm-1 0h1v1h-1zm-1 0h1v1h-1zm-1 0h1v1h-1zm-1 0h1v1h-1zm-1 0h1v1H9zm-1 0h1v1H8zm-1 0h1v1H7zm-1 0h1v1H6zm-1 0h1v1H5zm-1 0h1v1H4zm-1 0h1v1H3zm-1 0h1v1H2zm-1 0h1v1H1z"/>
  <path fill="gray" d="M0 32h1v1H0z"/>
  <path d="M39 31h1v1h-1z"/>
  <path fill="gray" d="M38 31h1v1h-1z"/>
  <path fill="silver" d="M37 31h1v1h-1z"/>
  <path d="M36 31h1v1h-1z"/>
  <path fill="silver" d="M35 31h1v1h-1z"/>
  <path fill="#fff" d="M34 31h1v1h-1zm-1 0h1v1h-1z"/>
  <path d="M32 31h1v1h-1zm-1 0h1v1h-1zm-1 0h1v1h-1zm-1 0h1v1h-1zm-1 0h1v1h-1zm-1 0h1v1h-1zm-1 0h1v1h-1zm-1 0h1v1h-1zm-1 0h1v1h-1zm-1 0h1v1h-1zm-1 0h1v1h-1zm-1 0h1v1h-1zm-1 0h1v1h-1zm-1 0h1v1h-1zm-1 0h1v1h-1zm-1 0h1v1h-1zm-1 0h1v1h-1zm-1 0h1v1h-1zm-1 0h1v1h-1zm-1 0h1v1h-1zm-1 0h1v1h-1zm-1 0h1v1h-1zm-1 0h1v1h-1zm-1 0h1v1H9zm-1 0h1v1H8zm-1 0h1v1H7zm-1 0h1v1H6zm-1 0h1v1H5zm-1 0h1v1H4z"/>
  <path fill="#fff" d="M3 31h1v1H3zm-1 0h1v1H2zm-1 0h1v1H1z"/>
  <path fill="gray" d="M0 31h1v1H0z"/>
  <path d="M39 30h1v1h-1z"/>
  <path fill="gray" d="M38 30h1v1h-1z"/>
  <path fill="silver" d="M37 30h1v1h-1z"/>
  <path d="M36 30h1v1h-1z"/>
  <path fill="silver" d="M35 30h1v1h-1z"/>
  <path fill="#fff" d="M34 30h1v1h-1zm-1 0h1v1h-1zm-1 0h1v1h-1zm-1 0h1v1h-1zm-1 0h1v1h-1zm-1 0h1v1h-1zm-1 0h1v1h-1zm-1 0h1v1h-1zm-1 0h1v1h-1zm-1 0h1v1h-1zm-1 0h1v1h-1zm-1 0h1v1h-1zm-1 0h1v1h-1zm-1 0h1v1h-1zm-1 0h1v1h-1zm-1 0h1v1h-1zm-1 0h1v1h-1zm-1 0h1v1h-1zm-1 0h1v1h-1zm-1 0h1v1h-1zm-1 0h1v1h-1zm-1 0h1v1h-1zm-1 0h1v1h-1zm-1 0h1v1h-1zm-1 0h1v1h-1zm-1 0h1v1H9zm-1 0h1v1H8zm-1 0h1v1H7zm-1 0h1v1H6zm-1 0h1v1H5zm-1 0h1v1H4zm-1 0h1v1H3zm-1 0h1v1H2zm-1 0h1v1H1z"/>
  <path fill="gray" d="M0 30h1v1H0z"/>
  <path d="M39 29h1v1h-1z"/>
  <path fill="gray" d="M38 29h1v1h-1z"/>
  <path fill="silver" d="M37 29h1v1h-1z"/>
  <path d="M36 29h1v1h-1z"/>
  <path fill="silver" d="M35 29h1v1h-1z"/>
  <path fill="#fff" d="M34 29h1v1h-1zm-1 0h1v1h-1z"/>
  <path d="M32 29h1v1h-1zm-1 0h1v1h-1zm-1 0h1v1h-1zm-1 0h1v1h-1zm-1 0h1v1h-1zm-1 0h1v1h-1zm-1 0h1v1h-1zm-1 0h1v1h-1zm-1 0h1v1h-1zm-1 0h1v1h-1zm-1 0h1v1h-1zm-1 0h1v1h-1zm-1 0h1v1h-1zm-1 0h1v1h-1zm-1 0h1v1h-1zm-1 0h1v1h-1zm-1 0h1v1h-1zm-1 0h1v1h-1zm-1 0h1v1h-1zm-1 0h1v1h-1zm-1 0h1v1h-1zm-1 0h1v1h-1zm-1 0h1v1h-1zm-1 0h1v1H9zm-1 0h1v1H8zm-1 0h1v1H7zm-1 0h1v1H6zm-1 0h1v1H5zm-1 0h1v1H4z"/>
  <path fill="#fff" d="M3 29h1v1H3zm-1 0h1v1H2zm-1 0h1v1H1z"/>
  <path fill="gray" d="M0 29h1v1H0z"/>
  <path d="M39 28h1v1h-1z"/>
  <path fill="gray" d="M38 28h1v1h-1z"/>
  <path fill="silver" d="M37 28h1v1h-1z"/>
  <path d="M36 28h1v1h-1z"/>
  <path fill="silver" d="M35 28h1v1h-1z"/>
  <path fill="#fff" d="M34 28h1v1h-1zm-1 0h1v1h-1zm-1 0h1v1h-1zm-1 0h1v1h-1zm-1 0h1v1h-1zm-1 0h1v1h-1zm-1 0h1v1h-1zm-1 0h1v1h-1zm-1 0h1v1h-1zm-1 0h1v1h-1zm-1 0h1v1h-1zm-1 0h1v1h-1zm-1 0h1v1h-1zm-1 0h1v1h-1zm-1 0h1v1h-1zm-1 0h1v1h-1zm-1 0h1v1h-1zm-1 0h1v1h-1zm-1 0h1v1h-1zm-1 0h1v1h-1zm-1 0h1v1h-1zm-1 0h1v1h-1zm-1 0h1v1h-1zm-1 0h1v1h-1zm-1 0h1v1h-1zm-1 0h1v1H9zm-1 0h1v1H8zm-1 0h1v1H7zm-1 0h1v1H6zm-1 0h1v1H5zm-1 0h1v1H4zm-1 0h1v1H3zm-1 0h1v1H2zm-1 0h1v1H1z"/>
  <path fill="gray" d="M0 28h1v1H0z"/>
  <path d="M39 27h1v1h-1z"/>
  <path fill="gray" d="M38 27h1v1h-1z"/>
  <path fill="silver" d="M37 27h1v1h-1z"/>
  <path d="M36 27h1v1h-1z"/>
  <path fill="silver" d="M35 27h1v1h-1z"/>
  <path fill="#fff" d="M34 27h1v1h-1zm-1 0h1v1h-1z"/>
  <path d="M32 27h1v1h-1zm-1 0h1v1h-1zm-1 0h1v1h-1zm-1 0h1v1h-1zm-1 0h1v1h-1zm-1 0h1v1h-1zm-1 0h1v1h-1zm-1 0h1v1h-1zm-1 0h1v1h-1zm-1 0h1v1h-1zm-1 0h1v1h-1zm-1 0h1v1h-1zm-1 0h1v1h-1zm-1 0h1v1h-1zm-1 0h1v1h-1zm-1 0h1v1h-1zm-1 0h1v1h-1zm-1 0h1v1h-1zm-1 0h1v1h-1zm-1 0h1v1h-1zm-1 0h1v1h-1zm-1 0h1v1h-1zm-1 0h1v1h-1zm-1 0h1v1H9zm-1 0h1v1H8zm-1 0h1v1H7zm-1 0h1v1H6zm-1 0h1v1H5zm-1 0h1v1H4z"/>
  <path fill="#fff" d="M3 27h1v1H3zm-1 0h1v1H2zm-1 0h1v1H1z"/>
  <path fill="gray" d="M0 27h1v1H0z"/>
  <path d="M39 26h1v1h-1z"/>
  <path fill="gray" d="M38 26h1v1h-1z"/>
  <path fill="silver" d="M37 26h1v1h-1z"/>
  <path d="M36 26h1v1h-1z"/>
  <path fill="silver" d="M35 26h1v1h-1z"/>
  <path fill="#fff" d="M34 26h1v1h-1zm-1 0h1v1h-1zm-1 0h1v1h-1zm-1 0h1v1h-1zm-1 0h1v1h-1zm-1 0h1v1h-1zm-1 0h1v1h-1zm-1 0h1v1h-1zm-1 0h1v1h-1zm-1 0h1v1h-1zm-1 0h1v1h-1zm-1 0h1v1h-1zm-1 0h1v1h-1zm-1 0h1v1h-1zm-1 0h1v1h-1zm-1 0h1v1h-1zm-1 0h1v1h-1zm-1 0h1v1h-1zm-1 0h1v1h-1zm-1 0h1v1h-1zm-1 0h1v1h-1zm-1 0h1v1h-1zm-1 0h1v1h-1zm-1 0h1v1h-1zm-1 0h1v1h-1zm-1 0h1v1H9zm-1 0h1v1H8zm-1 0h1v1H7zm-1 0h1v1H6zm-1 0h1v1H5zm-1 0h1v1H4zm-1 0h1v1H3zm-1 0h1v1H2zm-1 0h1v1H1z"/>
  <path fill="gray" d="M0 26h1v1H0z"/>
  <path d="M39 25h1v1h-1z"/>
  <path fill="gray" d="M38 25h1v1h-1z"/>
  <path fill="silver" d="M37 25h1v1h-1z"/>
  <path d="M36 25h1v1h-1z"/>
  <path fill="silver" d="M35 25h1v1h-1z"/>
  <path fill="#fff" d="M34 25h1v1h-1zm-1 0h1v1h-1z"/>
  <path d="M32 25h1v1h-1zm-1 0h1v1h-1zm-1 0h1v1h-1zm-1 0h1v1h-1zm-1 0h1v1h-1zm-1 0h1v1h-1zm-1 0h1v1h-1zm-1 0h1v1h-1zm-1 0h1v1h-1zm-1 0h1v1h-1zm-1 0h1v1h-1zm-1 0h1v1h-1zm-1 0h1v1h-1zm-1 0h1v1h-1zm-1 0h1v1h-1zm-1 0h1v1h-1zm-1 0h1v1h-1zm-1 0h1v1h-1zm-1 0h1v1h-1zm-1 0h1v1h-1zm-1 0h1v1h-1zm-1 0h1v1h-1zm-1 0h1v1h-1zm-1 0h1v1H9zm-1 0h1v1H8zm-1 0h1v1H7zm-1 0h1v1H6zm-1 0h1v1H5zm-1 0h1v1H4z"/>
  <path fill="#fff" d="M3 25h1v1H3zm-1 0h1v1H2zm-1 0h1v1H1z"/>
  <path fill="gray" d="M0 25h1v1H0z"/>
  <path d="M39 24h1v1h-1z"/>
  <path fill="gray" d="M38 24h1v1h-1z"/>
  <path fill="silver" d="M37 24h1v1h-1z"/>
  <path d="M36 24h1v1h-1z"/>
  <path fill="silver" d="M35 24h1v1h-1z"/>
  <path fill="#fff" d="M34 24h1v1h-1zm-1 0h1v1h-1zm-1 0h1v1h-1zm-1 0h1v1h-1zm-1 0h1v1h-1zm-1 0h1v1h-1zm-1 0h1v1h-1zm-1 0h1v1h-1zm-1 0h1v1h-1zm-1 0h1v1h-1zm-1 0h1v1h-1zm-1 0h1v1h-1zm-1 0h1v1h-1zm-1 0h1v1h-1zm-1 0h1v1h-1zm-1 0h1v1h-1zm-1 0h1v1h-1zm-1 0h1v1h-1zm-1 0h1v1h-1zm-1 0h1v1h-1zm-1 0h1v1h-1zm-1 0h1v1h-1zm-1 0h1v1h-1zm-1 0h1v1h-1zm-1 0h1v1h-1zm-1 0h1v1H9zm-1 0h1v1H8zm-1 0h1v1H7zm-1 0h1v1H6zm-1 0h1v1H5zm-1 0h1v1H4zm-1 0h1v1H3zm-1 0h1v1H2zm-1 0h1v1H1z"/>
  <path fill="gray" d="M0 24h1v1H0z"/>
  <path d="M39 23h1v1h-1z"/>
  <path fill="gray" d="M38 23h1v1h-1z"/>
  <path fill="silver" d="M37 23h1v1h-1z"/>
  <path d="M36 23h1v1h-1z"/>
  <path fill="silver" d="M35 23h1v1h-1z"/>
  <path fill="#fff" d="M34 23h1v1h-1zm-1 0h1v1h-1z"/>
  <path d="M32 23h1v1h-1zm-1 0h1v1h-1zm-1 0h1v1h-1zm-1 0h1v1h-1zm-1 0h1v1h-1zm-1 0h1v1h-1zm-1 0h1v1h-1zm-1 0h1v1h-1zm-1 0h1v1h-1zm-1 0h1v1h-1zm-1 0h1v1h-1zm-1 0h1v1h-1zm-1 0h1v1h-1zm-1 0h1v1h-1zm-1 0h1v1h-1zm-1 0h1v1h-1zm-1 0h1v1h-1zm-1 0h1v1h-1zm-1 0h1v1h-1zm-1 0h1v1h-1zm-1 0h1v1h-1zm-1 0h1v1h-1zm-1 0h1v1h-1zm-1 0h1v1H9zm-1 0h1v1H8zm-1 0h1v1H7zm-1 0h1v1H6zm-1 0h1v1H5zm-1 0h1v1H4z"/>
  <path fill="#fff" d="M3 23h1v1H3zm-1 0h1v1H2zm-1 0h1v1H1z"/>
  <path fill="gray" d="M0 23h1v1H0z"/>
  <path d="M39 22h1v1h-1z"/>
  <path fill="gray" d="M38 22h1v1h-1z"/>
  <path fill="silver" d="M37 22h1v1h-1z"/>
  <path d="M36 22h1v1h-1z"/>
  <path fill="silver" d="M35 22h1v1h-1z"/>
  <path fill="#fff" d="M34 22h1v1h-1zm-1 0h1v1h-1zm-1 0h1v1h-1zm-1 0h1v1h-1zm-1 0h1v1h-1zm-1 0h1v1h-1zm-1 0h1v1h-1zm-1 0h1v1h-1zm-1 0h1v1h-1zm-1 0h1v1h-1zm-1 0h1v1h-1zm-1 0h1v1h-1zm-1 0h1v1h-1zm-1 0h1v1h-1zm-1 0h1v1h-1zm-1 0h1v1h-1zm-1 0h1v1h-1zm-1 0h1v1h-1zm-1 0h1v1h-1zm-1 0h1v1h-1zm-1 0h1v1h-1zm-1 0h1v1h-1zm-1 0h1v1h-1zm-1 0h1v1h-1zm-1 0h1v1h-1zm-1 0h1v1H9zm-1 0h1v1H8zm-1 0h1v1H7zm-1 0h1v1H6zm-1 0h1v1H5zm-1 0h1v1H4zm-1 0h1v1H3zm-1 0h1v1H2zm-1 0h1v1H1z"/>
  <path fill="gray" d="M0 22h1v1H0z"/>
  <path d="M39 21h1v1h-1z"/>
  <path fill="gray" d="M38 21h1v1h-1z"/>
  <path fill="silver" d="M37 21h1v1h-1z"/>
  <path d="M36 21h1v1h-1z"/>
  <path fill="silver" d="M35 21h1v1h-1z"/>
  <path fill="#fff" d="M34 21h1v1h-1zm-1 0h1v1h-1zm-1 0h1v1h-1zm-1 0h1v1h-1zm-1 0h1v1h-1zm-1 0h1v1h-1zm-1 0h1v1h-1zm-1 0h1v1h-1zm-1 0h1v1h-1zm-1 0h1v1h-1zm-1 0h1v1h-1zm-1 0h1v1h-1zm-1 0h1v1h-1zm-1 0h1v1h-1zm-1 0h1v1h-1zm-1 0h1v1h-1zm-1 0h1v1h-1zm-1 0h1v1h-1zm-1 0h1v1h-1zm-1 0h1v1h-1zm-1 0h1v1h-1zm-1 0h1v1h-1zm-1 0h1v1h-1zm-1 0h1v1h-1zm-1 0h1v1h-1zm-1 0h1v1H9zm-1 0h1v1H8zm-1 0h1v1H7zm-1 0h1v1H6zm-1 0h1v1H5zm-1 0h1v1H4zm-1 0h1v1H3zm-1 0h1v1H2zm-1 0h1v1H1z"/>
  <path fill="gray" d="M0 21h1v1H0z"/>
  <path d="M39 20h1v1h-1z"/>
  <path fill="gray" d="M38 20h1v1h-1z"/>
  <path fill="silver" d="M37 20h1v1h-1z"/>
  <path d="M36 20h1v1h-1z"/>
  <path fill="silver" d="M35 20h1v1h-1z"/>
  <path fill="#fff" d="M34 20h1v1h-1zm-1 0h1v1h-1zm-1 0h1v1h-1zm-1 0h1v1h-1zm-1 0h1v1h-1zm-1 0h1v1h-1zm-1 0h1v1h-1zm-1 0h1v1h-1zm-1 0h1v1h-1zm-1 0h1v1h-1zm-1 0h1v1h-1zm-1 0h1v1h-1zm-1 0h1v1h-1zm-1 0h1v1h-1zm-1 0h1v1h-1zm-1 0h1v1h-1zm-1 0h1v1h-1zm-1 0h1v1h-1zm-1 0h1v1h-1zm-1 0h1v1h-1zm-1 0h1v1h-1zm-1 0h1v1h-1zm-1 0h1v1h-1zm-1 0h1v1h-1zm-1 0h1v1h-1zm-1 0h1v1H9zm-1 0h1v1H8zm-1 0h1v1H7zm-1 0h1v1H6zm-1 0h1v1H5zm-1 0h1v1H4zm-1 0h1v1H3zm-1 0h1v1H2zm-1 0h1v1H1z"/>
  <path fill="gray" d="M0 20h1v1H0z"/>
  <path d="M39 19h1v1h-1z"/>
  <path fill="gray" d="M38 19h1v1h-1z"/>
  <path fill="silver" d="M37 19h1v1h-1z"/>
  <path d="M36 19h1v1h-1z"/>
  <path fill="silver" d="M35 19h1v1h-1z"/>
  <path fill="#fff" d="M34 19h1v1h-1zm-1 0h1v1h-1zm-1 0h1v1h-1zm-1 0h1v1h-1zm-1 0h1v1h-1zm-1 0h1v1h-1zm-1 0h1v1h-1zm-1 0h1v1h-1zm-1 0h1v1h-1zm-1 0h1v1h-1zm-1 0h1v1h-1zm-1 0h1v1h-1zm-1 0h1v1h-1zm-1 0h1v1h-1zm-1 0h1v1h-1zm-1 0h1v1h-1zm-1 0h1v1h-1zm-1 0h1v1h-1zm-1 0h1v1h-1zm-1 0h1v1h-1zm-1 0h1v1h-1zm-1 0h1v1h-1z"/>
  <path d="M12 19h1v1h-1zm-1 0h1v1h-1zm-1 0h1v1h-1zm-1 0h1v1H9zm-1 0h1v1H8zm-1 0h1v1H7zm-1 0h1v1H6zm-1 0h1v1H5zm-1 0h1v1H4z"/>
  <path fill="#fff" d="M3 19h1v1H3zm-1 0h1v1H2zm-1 0h1v1H1z"/>
  <path fill="gray" d="M0 19h1v1H0z"/>
  <path d="M39 18h1v1h-1z"/>
  <path fill="gray" d="M38 18h1v1h-1z"/>
  <path fill="silver" d="M37 18h1v1h-1z"/>
  <path d="M36 18h1v1h-1z"/>
  <path fill="silver" d="M35 18h1v1h-1z"/>
  <path fill="#fff" d="M34 18h1v1h-1zm-1 0h1v1h-1zm-1 0h1v1h-1zm-1 0h1v1h-1zm-1 0h1v1h-1zm-1 0h1v1h-1zm-1 0h1v1h-1zm-1 0h1v1h-1zm-1 0h1v1h-1zm-1 0h1v1h-1zm-1 0h1v1h-1zm-1 0h1v1h-1zm-1 0h1v1h-1zm-1 0h1v1h-1zm-1 0h1v1h-1zm-1 0h1v1h-1zm-1 0h1v1h-1zm-1 0h1v1h-1zm-1 0h1v1h-1zm-1 0h1v1h-1zm-1 0h1v1h-1zm-1 0h1v1h-1zm-1 0h1v1h-1zm-1 0h1v1h-1zm-1 0h1v1h-1zm-1 0h1v1H9zm-1 0h1v1H8zm-1 0h1v1H7zm-1 0h1v1H6zm-1 0h1v1H5zm-1 0h1v1H4zm-1 0h1v1H3zm-1 0h1v1H2zm-1 0h1v1H1z"/>
  <path fill="gray" d="M0 18h1v1H0z"/>
  <path d="M39 17h1v1h-1z"/>
  <path fill="gray" d="M38 17h1v1h-1z"/>
  <path fill="silver" d="M37 17h1v1h-1z"/>
  <path d="M36 17h1v1h-1z"/>
  <path fill="silver" d="M35 17h1v1h-1z"/>
  <path fill="#fff" d="M34 17h1v1h-1zm-1 0h1v1h-1zm-1 0h1v1h-1zm-1 0h1v1h-1zm-1 0h1v1h-1zm-1 0h1v1h-1zm-1 0h1v1h-1zm-1 0h1v1h-1zm-1 0h1v1h-1zm-1 0h1v1h-1zm-1 0h1v1h-1zm-1 0h1v1h-1zm-1 0h1v1h-1zm-1 0h1v1h-1zm-1 0h1v1h-1zm-1 0h1v1h-1zm-1 0h1v1h-1zm-1 0h1v1h-1zm-1 0h1v1h-1zm-1 0h1v1h-1zm-1 0h1v1h-1zm-1 0h1v1h-1zm-1 0h1v1h-1zm-1 0h1v1h-1zm-1 0h1v1h-1zm-1 0h1v1H9zm-1 0h1v1H8zm-1 0h1v1H7zm-1 0h1v1H6zm-1 0h1v1H5zm-1 0h1v1H4zm-1 0h1v1H3zm-1 0h1v1H2zm-1 0h1v1H1z"/>
  <path fill="gray" d="M0 17h1v1H0z"/>
  <path d="M39 16h1v1h-1z"/>
  <path fill="gray" d="M38 16h1v1h-1z"/>
  <path fill="silver" d="M37 16h1v1h-1z"/>
  <path d="M36 16h1v1h-1z"/>
  <path fill="silver" d="M35 16h1v1h-1z"/>
  <path fill="#fff" d="M34 16h1v1h-1zm-1 0h1v1h-1zm-1 0h1v1h-1zm-1 0h1v1h-1zm-1 0h1v1h-1zm-1 0h1v1h-1zm-1 0h1v1h-1zm-1 0h1v1h-1zm-1 0h1v1h-1zm-1 0h1v1h-1zm-1 0h1v1h-1zm-1 0h1v1h-1zm-1 0h1v1h-1zm-1 0h1v1h-1zm-1 0h1v1h-1zm-1 0h1v1h-1zm-1 0h1v1h-1zm-1 0h1v1h-1zm-1 0h1v1h-1zm-1 0h1v1h-1zm-1 0h1v1h-1zm-1 0h1v1h-1zm-1 0h1v1h-1zm-1 0h1v1h-1zm-1 0h1v1h-1zm-1 0h1v1H9zm-1 0h1v1H8zm-1 0h1v1H7zm-1 0h1v1H6zm-1 0h1v1H5zm-1 0h1v1H4zm-1 0h1v1H3zm-1 0h1v1H2zm-1 0h1v1H1z"/>
  <path fill="gray" d="M0 16h1v1H0z"/>
  <path d="M39 15h1v1h-1z"/>
  <path fill="gray" d="M38 15h1v1h-1z"/>
  <path fill="silver" d="M37 15h1v1h-1z"/>
  <path d="M36 15h1v1h-1z"/>
  <path fill="silver" d="M35 15h1v1h-1z"/>
  <path fill="#fff" d="M34 15h1v1h-1zm-1 0h1v1h-1zm-1 0h1v1h-1zm-1 0h1v1h-1zm-1 0h1v1h-1zm-1 0h1v1h-1zm-1 0h1v1h-1zm-1 0h1v1h-1zm-1 0h1v1h-1zm-1 0h1v1h-1zm-1 0h1v1h-1zm-1 0h1v1h-1zm-1 0h1v1h-1zm-1 0h1v1h-1zm-1 0h1v1h-1zm-1 0h1v1h-1zm-1 0h1v1h-1zm-1 0h1v1h-1zm-1 0h1v1h-1zm-1 0h1v1h-1zm-1 0h1v1h-1zm-1 0h1v1h-1zm-1 0h1v1h-1zm-1 0h1v1h-1zm-1 0h1v1h-1zm-1 0h1v1H9zm-1 0h1v1H8zm-1 0h1v1H7zm-1 0h1v1H6zm-1 0h1v1H5zm-1 0h1v1H4zm-1 0h1v1H3zm-1 0h1v1H2zm-1 0h1v1H1z"/>
  <path fill="gray" d="M0 15h1v1H0z"/>
  <path d="M39 14h1v1h-1z"/>
  <path fill="gray" d="M38 14h1v1h-1z"/>
  <path fill="silver" d="M37 14h1v1h-1z"/>
  <path d="M36 14h1v1h-1z"/>
  <path fill="silver" d="M35 14h1v1h-1z"/>
  <path fill="#fff" d="M34 14h1v1h-1zm-1 0h1v1h-1zm-1 0h1v1h-1zm-1 0h1v1h-1zm-1 0h1v1h-1zm-1 0h1v1h-1zm-1 0h1v1h-1zm-1 0h1v1h-1zm-1 0h1v1h-1zm-1 0h1v1h-1zm-1 0h1v1h-1zm-1 0h1v1h-1zm-1 0h1v1h-1zm-1 0h1v1h-1zm-1 0h1v1h-1zm-1 0h1v1h-1zm-1 0h1v1h-1zm-1 0h1v1h-1zm-1 0h1v1h-1zm-1 0h1v1h-1zm-1 0h1v1h-1zm-1 0h1v1h-1zm-1 0h1v1h-1zm-1 0h1v1h-1zm-1 0h1v1h-1z"/>
  <path d="M9 14h1v1H9zm-1 0h1v1H8zm-1 0h1v1H7zm-1 0h1v1H6zm-1 0h1v1H5zm-1 0h1v1H4z"/>
  <path fill="#fff" d="M3 14h1v1H3zm-1 0h1v1H2zm-1 0h1v1H1z"/>
  <path fill="gray" d="M0 14h1v1H0z"/>
  <path d="M39 13h1v1h-1z"/>
  <path fill="gray" d="M38 13h1v1h-1z"/>
  <path fill="silver" d="M37 13h1v1h-1z"/>
  <path d="M36 13h1v1h-1z"/>
  <path fill="silver" d="M35 13h1v1h-1z"/>
  <path fill="#fff" d="M34 13h1v1h-1zm-1 0h1v1h-1zm-1 0h1v1h-1zm-1 0h1v1h-1zm-1 0h1v1h-1zm-1 0h1v1h-1zm-1 0h1v1h-1zm-1 0h1v1h-1zm-1 0h1v1h-1zm-1 0h1v1h-1zm-1 0h1v1h-1zm-1 0h1v1h-1zm-1 0h1v1h-1zm-1 0h1v1h-1zm-1 0h1v1h-1zm-1 0h1v1h-1zm-1 0h1v1h-1zm-1 0h1v1h-1zm-1 0h1v1h-1zm-1 0h1v1h-1zm-1 0h1v1h-1zm-1 0h1v1h-1zm-1 0h1v1h-1zm-1 0h1v1h-1zm-1 0h1v1h-1zm-1 0h1v1H9zm-1 0h1v1H8zm-1 0h1v1H7zm-1 0h1v1H6zm-1 0h1v1H5zm-1 0h1v1H4zm-1 0h1v1H3zm-1 0h1v1H2zm-1 0h1v1H1z"/>
  <path fill="gray" d="M0 13h1v1H0z"/>
  <path d="M39 12h1v1h-1z"/>
  <path fill="gray" d="M38 12h1v1h-1z"/>
  <path fill="silver" d="M37 12h1v1h-1z"/>
  <path d="M36 12h1v1h-1z"/>
  <path fill="silver" d="M35 12h1v1h-1z"/>
  <path fill="#fff" d="M34 12h1v1h-1zm-1 0h1v1h-1zm-1 0h1v1h-1zm-1 0h1v1h-1zm-1 0h1v1h-1zm-1 0h1v1h-1zm-1 0h1v1h-1zm-1 0h1v1h-1zm-1 0h1v1h-1zm-1 0h1v1h-1zm-1 0h1v1h-1zm-1 0h1v1h-1zm-1 0h1v1h-1zm-1 0h1v1h-1zm-1 0h1v1h-1zm-1 0h1v1h-1zm-1 0h1v1h-1zm-1 0h1v1h-1zm-1 0h1v1h-1zm-1 0h1v1h-1zm-1 0h1v1h-1z"/>
  <path d="M13 12h1v1h-1zm-1 0h1v1h-1zm-1 0h1v1h-1zm-1 0h1v1h-1zm-1 0h1v1H9zm-1 0h1v1H8zm-1 0h1v1H7zm-1 0h1v1H6zm-1 0h1v1H5zm-1 0h1v1H4z"/>
  <path fill="#fff" d="M3 12h1v1H3zm-1 0h1v1H2zm-1 0h1v1H1z"/>
  <path fill="gray" d="M0 12h1v1H0z"/>
  <path d="M39 11h1v1h-1z"/>
  <path fill="gray" d="M38 11h1v1h-1z"/>
  <path fill="silver" d="M37 11h1v1h-1z"/>
  <path d="M36 11h1v1h-1z"/>
  <path fill="silver" d="M35 11h1v1h-1z"/>
  <path fill="#fff" d="M34 11h1v1h-1zm-1 0h1v1h-1zm-1 0h1v1h-1zm-1 0h1v1h-1zm-1 0h1v1h-1zm-1 0h1v1h-1zm-1 0h1v1h-1zm-1 0h1v1h-1zm-1 0h1v1h-1zm-1 0h1v1h-1zm-1 0h1v1h-1zm-1 0h1v1h-1zm-1 0h1v1h-1zm-1 0h1v1h-1zm-1 0h1v1h-1zm-1 0h1v1h-1zm-1 0h1v1h-1zm-1 0h1v1h-1zm-1 0h1v1h-1zm-1 0h1v1h-1zm-1 0h1v1h-1zm-1 0h1v1h-1zm-1 0h1v1h-1zm-1 0h1v1h-1zm-1 0h1v1h-1zm-1 0h1v1H9zm-1 0h1v1H8zm-1 0h1v1H7zm-1 0h1v1H6zm-1 0h1v1H5zm-1 0h1v1H4zm-1 0h1v1H3zm-1 0h1v1H2zm-1 0h1v1H1z"/>
  <path fill="gray" d="M0 11h1v1H0z"/>
  <path d="M39 10h1v1h-1z"/>
  <path fill="gray" d="M38 10h1v1h-1z"/>
  <path fill="silver" d="M37 10h1v1h-1z"/>
  <path d="M36 10h1v1h-1z"/>
  <path fill="silver" d="M35 10h1v1h-1z"/>
  <path fill="#fff" d="M34 10h1v1h-1zm-1 0h1v1h-1z"/>
  <path d="M32 10h1v1h-1zm-1 0h1v1h-1zm-1 0h1v1h-1zm-1 0h1v1h-1zm-1 0h1v1h-1zm-1 0h1v1h-1zm-1 0h1v1h-1z"/>
  <path fill="#fff" d="M25 10h1v1h-1z"/>
  <path d="M24 10h1v1h-1zm-1 0h1v1h-1zm-1 0h1v1h-1z"/>
  <path fill="#fff" d="M21 10h1v1h-1zm-1 0h1v1h-1zm-1 0h1v1h-1zm-1 0h1v1h-1zm-1 0h1v1h-1zm-1 0h1v1h-1zm-1 0h1v1h-1zm-1 0h1v1h-1z"/>
  <path d="M13 10h1v1h-1zm-1 0h1v1h-1zm-1 0h1v1h-1zm-1 0h1v1h-1zm-1 0h1v1H9zm-1 0h1v1H8zm-1 0h1v1H7zm-1 0h1v1H6zm-1 0h1v1H5zm-1 0h1v1H4z"/>
  <path fill="#fff" d="M3 10h1v1H3zm-1 0h1v1H2zm-1 0h1v1H1z"/>
  <path fill="gray" d="M0 10h1v1H0z"/>
  <path d="M39 9h1v1h-1z"/>
  <path fill="gray" d="M38 9h1v1h-1z"/>
  <path fill="silver" d="M37 9h1v1h-1z"/>
  <path d="M36 9h1v1h-1z"/>
  <path fill="silver" d="M35 9h1v1h-1z"/>
  <path fill="#fff" d="M34 9h1v1h-1zm-1 0h1v1h-1zm-1 0h1v1h-1zm-1 0h1v1h-1zm-1 0h1v1h-1zm-1 0h1v1h-1zm-1 0h1v1h-1zm-1 0h1v1h-1zm-1 0h1v1h-1zm-1 0h1v1h-1zm-1 0h1v1h-1zm-1 0h1v1h-1zm-1 0h1v1h-1zm-1 0h1v1h-1zm-1 0h1v1h-1zm-1 0h1v1h-1zm-1 0h1v1h-1zm-1 0h1v1h-1zm-1 0h1v1h-1zm-1 0h1v1h-1zm-1 0h1v1h-1zm-1 0h1v1h-1zm-1 0h1v1h-1zm-1 0h1v1h-1zm-1 0h1v1h-1zM9 9h1v1H9zM8 9h1v1H8zM7 9h1v1H7zM6 9h1v1H6zM5 9h1v1H5zM4 9h1v1H4zM3 9h1v1H3zM2 9h1v1H2zM1 9h1v1H1z"/>
  <path fill="gray" d="M0 9h1v1H0z"/>
  <path d="M39 8h1v1h-1z"/>
  <path fill="gray" d="M38 8h1v1h-1z"/>
  <path fill="silver" d="M37 8h1v1h-1z"/>
  <path d="M36 8h1v1h-1z"/>
  <path fill="silver" d="M35 8h1v1h-1z"/>
  <path fill="#fff" d="M34 8h1v1h-1zm-1 0h1v1h-1zm-1 0h1v1h-1zm-1 0h1v1h-1zm-1 0h1v1h-1zm-1 0h1v1h-1zm-1 0h1v1h-1zm-1 0h1v1h-1zm-1 0h1v1h-1zm-1 0h1v1h-1zm-1 0h1v1h-1zm-1 0h1v1h-1zm-1 0h1v1h-1zm-1 0h1v1h-1zm-1 0h1v1h-1zm-1 0h1v1h-1zm-1 0h1v1h-1zm-1 0h1v1h-1zm-1 0h1v1h-1zm-1 0h1v1h-1zm-1 0h1v1h-1zm-1 0h1v1h-1zm-1 0h1v1h-1zm-1 0h1v1h-1zm-1 0h1v1h-1zM9 8h1v1H9zM8 8h1v1H8zM7 8h1v1H7zM6 8h1v1H6zM5 8h1v1H5zM4 8h1v1H4zM3 8h1v1H3zM2 8h1v1H2zM1 8h1v1H1z"/>
  <path fill="gray" d="M0 8h1v1H0z"/>
  <path d="M39 7h1v1h-1z"/>
  <path fill="gray" d="M38 7h1v1h-1z"/>
  <path fill="silver" d="M37 7h1v1h-1z"/>
  <path d="M36 7h1v1h-1z"/>
  <path fill="silver" d="M35 7h1v1h-1z"/>
  <path fill="#fff" d="M34 7h1v1h-1zm-1 0h1v1h-1zm-1 0h1v1h-1zm-1 0h1v1h-1zm-1 0h1v1h-1zm-1 0h1v1h-1zm-1 0h1v1h-1zm-1 0h1v1h-1zm-1 0h1v1h-1zm-1 0h1v1h-1zm-1 0h1v1h-1zm-1 0h1v1h-1zm-1 0h1v1h-1zm-1 0h1v1h-1zm-1 0h1v1h-1zm-1 0h1v1h-1zm-1 0h1v1h-1zm-1 0h1v1h-1zm-1 0h1v1h-1zm-1 0h1v1h-1zm-1 0h1v1h-1zm-1 0h1v1h-1zm-1 0h1v1h-1zm-1 0h1v1h-1zm-1 0h1v1h-1zM9 7h1v1H9zM8 7h1v1H8zM7 7h1v1H7zM6 7h1v1H6zM5 7h1v1H5zM4 7h1v1H4zM3 7h1v1H3zM2 7h1v1H2zM1 7h1v1H1z"/>
  <path fill="gray" d="M0 7h1v1H0z"/>
  <path d="M39 6h1v1h-1z"/>
  <path fill="gray" d="M38 6h1v1h-1z"/>
  <path fill="silver" d="M37 6h1v1h-1z"/>
  <path d="M36 6h1v1h-1z"/>
  <path fill="silver" d="M35 6h1v1h-1z"/>
  <path fill="#fff" d="M34 6h1v1h-1zm-1 0h1v1h-1zm-1 0h1v1h-1zm-1 0h1v1h-1zm-1 0h1v1h-1zm-1 0h1v1h-1zm-1 0h1v1h-1zm-1 0h1v1h-1zm-1 0h1v1h-1zm-1 0h1v1h-1zm-1 0h1v1h-1zm-1 0h1v1h-1zm-1 0h1v1h-1zm-1 0h1v1h-1zm-1 0h1v1h-1zm-1 0h1v1h-1zm-1 0h1v1h-1zm-1 0h1v1h-1zm-1 0h1v1h-1zm-1 0h1v1h-1zm-1 0h1v1h-1zm-1 0h1v1h-1zm-1 0h1v1h-1zm-1 0h1v1h-1zm-1 0h1v1h-1zM9 6h1v1H9zM8 6h1v1H8zM7 6h1v1H7zM6 6h1v1H6zM5 6h1v1H5zM4 6h1v1H4zM3 6h1v1H3zM2 6h1v1H2zM1 6h1v1H1z"/>
  <path fill="gray" d="M0 6h1v1H0z"/>
  <path d="M39 5h1v1h-1z"/>
  <path fill="gray" d="M38 5h1v1h-1z"/>
  <path fill="silver" d="M37 5h1v1h-1z"/>
  <path d="M36 5h1v1h-1z"/>
  <path fill="silver" d="M35 5h1v1h-1z"/>
  <path fill="#fff" d="M34 5h1v1h-1zm-1 0h1v1h-1zm-1 0h1v1h-1zm-1 0h1v1h-1zm-1 0h1v1h-1zm-1 0h1v1h-1zm-1 0h1v1h-1zm-1 0h1v1h-1zm-1 0h1v1h-1zm-1 0h1v1h-1zm-1 0h1v1h-1zm-1 0h1v1h-1zm-1 0h1v1h-1zm-1 0h1v1h-1zm-1 0h1v1h-1zm-1 0h1v1h-1zm-1 0h1v1h-1zm-1 0h1v1h-1zm-1 0h1v1h-1zm-1 0h1v1h-1zm-1 0h1v1h-1zm-1 0h1v1h-1zm-1 0h1v1h-1zm-1 0h1v1h-1zm-1 0h1v1h-1zM9 5h1v1H9zM8 5h1v1H8zM7 5h1v1H7zM6 5h1v1H6zM5 5h1v1H5zM4 5h1v1H4zM3 5h1v1H3zM2 5h1v1H2zM1 5h1v1H1z"/>
  <path fill="gray" d="M0 5h1v1H0z"/>
  <path d="M39 4h1v1h-1z"/>
  <path fill="gray" d="M38 4h1v1h-1z"/>
  <path d="M37 4h1v1h-1zm-1 0h1v1h-1z"/>
  <path fill="gray" d="M35 4h1v1h-1z"/>
  <path fill="#fff" d="M34 4h1v1h-1zm-1 0h1v1h-1z"/>
  <path d="M32 4h1v1h-1z"/>
  <path fill="silver" d="M31 4h1v1h-1z"/>
  <path fill="#fff" d="M30 4h1v1h-1zm-1 0h1v1h-1z"/>
  <path d="M28 4h1v1h-1z"/>
  <path fill="silver" d="M27 4h1v1h-1z"/>
  <path fill="#fff" d="M26 4h1v1h-1zm-1 0h1v1h-1z"/>
  <path d="M24 4h1v1h-1z"/>
  <path fill="silver" d="M23 4h1v1h-1z"/>
  <path fill="#fff" d="M22 4h1v1h-1zm-1 0h1v1h-1z"/>
  <path d="M20 4h1v1h-1z"/>
  <path fill="silver" d="M19 4h1v1h-1z"/>
  <path fill="#fff" d="M18 4h1v1h-1zm-1 0h1v1h-1z"/>
  <path d="M16 4h1v1h-1z"/>
  <path fill="silver" d="M15 4h1v1h-1z"/>
  <path fill="#fff" d="M14 4h1v1h-1zm-1 0h1v1h-1z"/>
  <path d="M12 4h1v1h-1z"/>
  <path fill="silver" d="M11 4h1v1h-1z"/>
  <path fill="#fff" d="M10 4h1v1h-1zM9 4h1v1H9z"/>
  <path d="M8 4h1v1H8z"/>
  <path fill="silver" d="M7 4h1v1H7z"/>
  <path fill="#fff" d="M6 4h1v1H6zM5 4h1v1H5z"/>
  <path d="M4 4h1v1H4z"/>
  <path fill="silver" d="M3 4h1v1H3z"/>
  <path fill="#fff" d="M2 4h1v1H2zM1 4h1v1H1z"/>
  <path fill="gray" d="M0 4h1v1H0z"/>
  <path d="M39 3h1v1h-1z"/>
  <path fill="gray" d="M38 3h1v1h-1z"/>
  <path fill="#fff" d="M37 3h1v1h-1z"/>
  <path d="M36 3h1v1h-1zm-1 0h1v1h-1z"/>
  <path fill="silver" d="M34 3h1v1h-1z"/>
  <path fill="#fff" d="M33 3h1v1h-1zm-1 0h1v1h-1z"/>
  <path d="M31 3h1v1h-1z"/>
  <path fill="silver" d="M30 3h1v1h-1z"/>
  <path fill="#fff" d="M29 3h1v1h-1zm-1 0h1v1h-1z"/>
  <path d="M27 3h1v1h-1z"/>
  <path fill="silver" d="M26 3h1v1h-1z"/>
  <path fill="#fff" d="M25 3h1v1h-1zm-1 0h1v1h-1z"/>
  <path d="M23 3h1v1h-1z"/>
  <path fill="silver" d="M22 3h1v1h-1z"/>
  <path fill="#fff" d="M21 3h1v1h-1zm-1 0h1v1h-1z"/>
  <path d="M19 3h1v1h-1z"/>
  <path fill="silver" d="M18 3h1v1h-1z"/>
  <path fill="#fff" d="M17 3h1v1h-1zm-1 0h1v1h-1z"/>
  <path d="M15 3h1v1h-1z"/>
  <path fill="silver" d="M14 3h1v1h-1z"/>
  <path fill="#fff" d="M13 3h1v1h-1zm-1 0h1v1h-1z"/>
  <path d="M11 3h1v1h-1z"/>
  <path fill="silver" d="M10 3h1v1h-1z"/>
  <path fill="#fff" d="M9 3h1v1H9zM8 3h1v1H8z"/>
  <path d="M7 3h1v1H7z"/>
  <path fill="silver" d="M6 3h1v1H6z"/>
  <path fill="#fff" d="M5 3h1v1H5zM4 3h1v1H4z"/>
  <path d="M3 3h1v1H3z"/>
  <path fill="silver" d="M2 3h1v1H2z"/>
  <path fill="#fff" d="M1 3h1v1H1z"/>
  <path fill="gray" d="M0 3h1v1H0z"/>
  <path d="M39 2h1v1h-1z"/>
  <path fill="gray" d="M38 2h1v1h-1z"/>
  <path fill="#fff" d="M37 2h1v1h-1z"/>
  <path d="M36 2h1v1h-1zm-1 0h1v1h-1z"/>
  <path fill="silver" d="M34 2h1v1h-1z"/>
  <path fill="#fff" d="M33 2h1v1h-1zm-1 0h1v1h-1z"/>
  <path d="M31 2h1v1h-1z"/>
  <path fill="silver" d="M30 2h1v1h-1z"/>
  <path fill="#fff" d="M29 2h1v1h-1zm-1 0h1v1h-1z"/>
  <path d="M27 2h1v1h-1z"/>
  <path fill="silver" d="M26 2h1v1h-1z"/>
  <path fill="#fff" d="M25 2h1v1h-1zm-1 0h1v1h-1z"/>
  <path d="M23 2h1v1h-1z"/>
  <path fill="silver" d="M22 2h1v1h-1z"/>
  <path fill="#fff" d="M21 2h1v1h-1zm-1 0h1v1h-1z"/>
  <path d="M19 2h1v1h-1z"/>
  <path fill="silver" d="M18 2h1v1h-1z"/>
  <path fill="#fff" d="M17 2h1v1h-1zm-1 0h1v1h-1z"/>
  <path d="M15 2h1v1h-1z"/>
  <path fill="silver" d="M14 2h1v1h-1z"/>
  <path fill="#fff" d="M13 2h1v1h-1zm-1 0h1v1h-1z"/>
  <path d="M11 2h1v1h-1z"/>
  <path fill="silver" d="M10 2h1v1h-1z"/>
  <path fill="#fff" d="M9 2h1v1H9zM8 2h1v1H8z"/>
  <path d="M7 2h1v1H7z"/>
  <path fill="silver" d="M6 2h1v1H6z"/>
  <path fill="#fff" d="M5 2h1v1H5zM4 2h1v1H4z"/>
  <path d="M3 2h1v1H3z"/>
  <path fill="silver" d="M2 2h1v1H2z"/>
  <path fill="#fff" d="M1 2h1v1H1z"/>
  <path fill="gray" d="M0 2h1v1H0z"/>
  <path d="M38 1h1v1h-1zm-1 0h1v1h-1z"/>
  <path fill="gray" d="M36 1h1v1h-1z"/>
  <path d="M35 1h1v1h-1z"/>
  <path fill="silver" d="M34 1h1v1h-1z"/>
  <path fill="gray" d="M33 1h1v1h-1zm-1 0h1v1h-1z"/>
  <path d="M31 1h1v1h-1z"/>
  <path fill="silver" d="M30 1h1v1h-1z"/>
  <path fill="gray" d="M29 1h1v1h-1zm-1 0h1v1h-1z"/>
  <path d="M27 1h1v1h-1z"/>
  <path fill="silver" d="M26 1h1v1h-1z"/>
  <path fill="gray" d="M25 1h1v1h-1zm-1 0h1v1h-1z"/>
  <path d="M23 1h1v1h-1z"/>
  <path fill="silver" d="M22 1h1v1h-1z"/>
  <path fill="gray" d="M21 1h1v1h-1zm-1 0h1v1h-1z"/>
  <path d="M19 1h1v1h-1z"/>
  <path fill="silver" d="M18 1h1v1h-1z"/>
  <path fill="gray" d="M17 1h1v1h-1zm-1 0h1v1h-1z"/>
  <path d="M15 1h1v1h-1z"/>
  <path fill="silver" d="M14 1h1v1h-1z"/>
  <path fill="gray" d="M13 1h1v1h-1zm-1 0h1v1h-1z"/>
  <path d="M11 1h1v1h-1z"/>
  <path fill="silver" d="M10 1h1v1h-1z"/>
  <path fill="gray" d="M9 1h1v1H9zM8 1h1v1H8z"/>
  <path d="M7 1h1v1H7z"/>
  <path fill="silver" d="M6 1h1v1H6z"/>
  <path fill="gray" d="M5 1h1v1H5zM4 1h1v1H4z"/>
  <path d="M3 1h1v1H3z"/>
  <path fill="silver" d="M2 1h1v1H2z"/>
  <path fill="gray" d="M1 1h1v1H1z"/>
  <path d="M37 0h1v1h-1zm-1 0h1v1h-1z"/>
  <path fill="silver" d="M35 0h1v1h-1z"/>
  <path fill="#fff" d="M34 0h1v1h-1z"/>
  <path d="M33 0h1v1h-1zm-1 0h1v1h-1z"/>
  <path fill="silver" d="M31 0h1v1h-1z"/>
  <path fill="#fff" d="M30 0h1v1h-1z"/>
  <path d="M29 0h1v1h-1zm-1 0h1v1h-1z"/>
  <path fill="silver" d="M27 0h1v1h-1z"/>
  <path fill="#fff" d="M26 0h1v1h-1z"/>
  <path d="M25 0h1v1h-1zm-1 0h1v1h-1z"/>
  <path fill="silver" d="M23 0h1v1h-1z"/>
  <path fill="#fff" d="M22 0h1v1h-1z"/>
  <path d="M21 0h1v1h-1zm-1 0h1v1h-1z"/>
  <path fill="silver" d="M19 0h1v1h-1z"/>
  <path fill="#fff" d="M18 0h1v1h-1z"/>
  <path d="M17 0h1v1h-1zm-1 0h1v1h-1z"/>
  <path fill="silver" d="M15 0h1v1h-1z"/>
  <path fill="#fff" d="M14 0h1v1h-1z"/>
  <path d="M13 0h1v1h-1zm-1 0h1v1h-1z"/>
  <path fill="silver" d="M11 0h1v1h-1z"/>
  <path fill="#fff" d="M10 0h1v1h-1z"/>
  <path d="M9 0h1v1H9zM8 0h1v1H8z"/>
  <path fill="silver" d="M7 0h1v1H7z"/>
  <path fill="#fff" d="M6 0h1v1H6z"/>
  <path d="M5 0h1v1H5zM4 0h1v1H4z"/>
  <path fill="silver" d="M3 0h1v1H3z"/>
</svg>
