<?xml version="1.0" encoding="UTF-8"?>
<svg id="Layer_1" data-name="Layer 1" xmlns="http://www.w3.org/2000/svg" viewBox="0 0 16 14">
  <defs>
    <style>
      .cls-1 {
        fill: lime;
      }

      .cls-2 {
        fill: blue;
      }

      .cls-3 {
        fill: #ff0;
      }

      .cls-4 {
        fill: red;
      }
    </style>
  </defs>
  <g>
    <rect x="7.999999999999091" y="1" width="1.000000000000909" height="12"/>
    <rect x="9" width="1" height="12"/>
    <rect x="10" width="1" height="12"/>
    <rect x="11" width="1" height="12"/>
    <rect x="12" width="1" height="12"/>
    <rect x="13" y="1" width="1" height="12"/>
    <rect x="14" y="1" width="1" height="12"/>
    <rect x="15" y="2" width="1" height="12"/>
    <rect x="2" y="3" width="1" height="2"/>
    <rect x="3" y="4" width="1" height="1"/>
    <rect x="4" y="3" width="1" height="2"/>
    <rect x="5" y="3" width="1" height="2"/>
    <rect x="6" y="2" width="1" height="12"/>
    <rect x="7" y="1" width="1" height="12"/>
    <rect y="11" width="1" height="2"/>
    <rect x="2" y="12" width="1" height="2"/>
    <rect x="3" y="13" width="1" height="1"/>
    <rect x="4" y="12" width="1" height="2"/>
    <rect x="5" y="12" width="1" height="2"/>
    <rect y="2" width="1" height="2"/>
  </g>
  <rect class="cls-4" y="5" width="1" height="2"/>
  <rect class="cls-4" x="7.999999999999091" y="3" width="1.000000000000909" height="3"/>
  <rect class="cls-4" x="9" y="2" width="1" height="3"/>
  <rect class="cls-2" x="7.999999999999091" y="8" width="1.000000000000909" height="3"/>
  <rect class="cls-3" x="13" y="8" width="1" height="3"/>
  <rect class="cls-2" x="9" y="7" width="1" height="3"/>
  <rect class="cls-3" x="12" y="7" width="1" height="3"/>
  <rect class="cls-1" x="13" y="3" width="1" height="3"/>
  <rect class="cls-1" x="12" y="2" width="1" height="3"/>
  <rect class="cls-2" y="8" width="1" height="2"/>
  <rect class="cls-2" x="2" y="9" width="1" height="2"/>
  <rect class="cls-2" x="3" y="10" width="1" height="1"/>
  <rect class="cls-2" x="4" y="9" width="1" height="2"/>
  <rect class="cls-2" x="5" y="9" width="1" height="2"/>
  <rect class="cls-4" x="2" y="6" width="1" height="2"/>
  <rect class="cls-4" x="3" y="7" width="1" height="1"/>
  <rect class="cls-4" x="4" y="6" width="1" height="2"/>
  <rect class="cls-4" x="5" y="6" width="1" height="2"/>
</svg>