<svg xmlns="http://www.w3.org/2000/svg" width="9" height="10" viewBox="0 0 9 10">
  <path fill="#0091ff" d="M2 0h1v1H2zm0 1h1v1H2zm0 1h1v1H2zM1 2h1v1H1zM0 2h1v1H0zm1-1h1v1H1zm4-1h1v1H5zm0 1h1v1H5zm0 1h1v1H5zM4 2h1v1H4zM3 2h1v1H3zm1-1h1v1H4zm4-1h1v1H8zm0 1h1v1H8zm0 1h1v1H8zM7 2h1v1H7zM6 2h1v1H6zm1-1h1v1H7zM2 3h1v1H2zm0 1h1v1H2zm0 1h1v1H2zM1 5h1v1H1zM0 5h1v1H0zm1-1h1v1H1zm4-1h1v1H5zm0 1h1v1H5zm0 1h1v1H5zM4 5h1v1H4zM3 5h1v1H3zm1-1h1v1H4zm4-1h1v1H8zm0 1h1v1H8zm0 1h1v1H8zM7 5h1v1H7zM6 5h1v1H6zm1-1h1v1H7zM2 6h1v1H2zm0 1h1v1H2zm0 1h1v1H2zM1 8h1v1H1zM0 8h1v1H0zm1-1h1v1H1zm4-1h1v1H5zm0 1h1v1H5zm0 1h1v1H5zM4 8h1v1H4zM3 8h1v1H3zm1-1h1v1H4zm4-1h1v1H8zm0 1h1v1H8zm0 1h1v1H8zM7 8h1v1H7zM6 8h1v1H6zm1-1h1v1H7z"/>
  <path fill="#f7b500" d="M7 10H6V9h1zm0-1H6V8h1zm0-1H6V7h1zm1 0H7V7h1zm1 0H8V7h1zM8 9H7V8h1zm-4 1H3V9h1zm0-1H3V8h1zm0-1H3V7h1zm1 0H4V7h1zm1 0H5V7h1zM5 9H4V8h1zm2-2H6V6h1zm0-1H6V5h1zm0-1H6V4h1zm1 0H7V4h1zm1 0H8V4h1zM8 6H7V5h1z"/>
</svg>
